%TF.GenerationSoftware,KiCad,Pcbnew,(5.1.10)-1*%
%TF.CreationDate,2021-09-28T13:49:37-04:00*%
%TF.ProjectId,LED Driver,4c454420-4472-4697-9665-722e6b696361,C*%
%TF.SameCoordinates,Original*%
%TF.FileFunction,Soldermask,Top*%
%TF.FilePolarity,Negative*%
%FSLAX46Y46*%
G04 Gerber Fmt 4.6, Leading zero omitted, Abs format (unit mm)*
G04 Created by KiCad (PCBNEW (5.1.10)-1) date 2021-09-28 13:49:37*
%MOMM*%
%LPD*%
G01*
G04 APERTURE LIST*
%ADD10R,1.800000X1.800000*%
%ADD11C,1.800000*%
%ADD12C,3.200000*%
%ADD13O,1.600000X1.600000*%
%ADD14C,1.600000*%
%ADD15O,1.800000X1.800000*%
%ADD16R,1.050000X1.500000*%
%ADD17O,1.050000X1.500000*%
%ADD18R,1.905000X2.000000*%
%ADD19O,1.905000X2.000000*%
%ADD20O,1.700000X1.700000*%
%ADD21R,1.700000X1.700000*%
%ADD22R,1.600000X1.600000*%
G04 APERTURE END LIST*
D10*
%TO.C,D4*%
X78740000Y-101600000D03*
D11*
X78740000Y-99060000D03*
%TD*%
D12*
%TO.C,H4*%
X52070000Y-81915000D03*
%TD*%
%TO.C,H3*%
X52070000Y-108585000D03*
%TD*%
%TO.C,H1*%
X217170000Y-81915000D03*
%TD*%
%TO.C,H2*%
X217170000Y-108585000D03*
%TD*%
D13*
%TO.C,R17*%
X78740000Y-92710000D03*
D14*
X78740000Y-85090000D03*
%TD*%
D13*
%TO.C,R16*%
X93980000Y-92710000D03*
D14*
X93980000Y-85090000D03*
%TD*%
D13*
%TO.C,R15*%
X109220000Y-92710000D03*
D14*
X109220000Y-85090000D03*
%TD*%
%TO.C,R14*%
X124460000Y-85090000D03*
D13*
X124460000Y-92710000D03*
%TD*%
%TO.C,R12*%
X139700000Y-92710000D03*
D14*
X139700000Y-85090000D03*
%TD*%
D10*
%TO.C,Q8*%
X68580000Y-83820000D03*
D15*
X71120000Y-83820000D03*
X73660000Y-83820000D03*
%TD*%
%TO.C,Q7*%
X88900000Y-83820000D03*
X86360000Y-83820000D03*
D10*
X83820000Y-83820000D03*
%TD*%
D15*
%TO.C,Q6*%
X104140000Y-83820000D03*
X101600000Y-83820000D03*
D10*
X99060000Y-83820000D03*
%TD*%
D15*
%TO.C,Q5*%
X119380000Y-83820000D03*
X116840000Y-83820000D03*
D10*
X114300000Y-83820000D03*
%TD*%
D15*
%TO.C,Q4*%
X134620000Y-83820000D03*
X132080000Y-83820000D03*
D10*
X129540000Y-83820000D03*
%TD*%
D15*
%TO.C,Q3*%
X167640000Y-83820000D03*
X165100000Y-83820000D03*
D10*
X162560000Y-83820000D03*
%TD*%
D16*
%TO.C,Q1*%
X175260000Y-106680000D03*
D17*
X172720000Y-106680000D03*
X173990000Y-106680000D03*
%TD*%
D16*
%TO.C,Q2*%
X159004000Y-88392000D03*
D17*
X156464000Y-88392000D03*
X157734000Y-88392000D03*
%TD*%
D13*
%TO.C,R1*%
X200660000Y-101600000D03*
D14*
X200660000Y-93980000D03*
%TD*%
%TO.C,R3*%
X187960000Y-106680000D03*
D13*
X180340000Y-106680000D03*
%TD*%
D14*
%TO.C,R4*%
X172720000Y-100330000D03*
D13*
X165100000Y-100330000D03*
%TD*%
%TO.C,R5*%
X165100000Y-96520000D03*
D14*
X172720000Y-96520000D03*
%TD*%
D13*
%TO.C,R6*%
X161290000Y-109220000D03*
D14*
X161290000Y-101600000D03*
%TD*%
%TO.C,R7*%
X157480000Y-101600000D03*
D13*
X157480000Y-109220000D03*
%TD*%
%TO.C,R8*%
X153670000Y-101600000D03*
D14*
X153670000Y-109220000D03*
%TD*%
%TO.C,R9*%
X152400000Y-97790000D03*
D13*
X144780000Y-97790000D03*
%TD*%
D14*
%TO.C,R10*%
X152400000Y-86360000D03*
D13*
X144780000Y-86360000D03*
%TD*%
D14*
%TO.C,R11*%
X152400000Y-90170000D03*
D13*
X144780000Y-90170000D03*
%TD*%
%TO.C,R13*%
X144780000Y-93980000D03*
D14*
X152400000Y-93980000D03*
%TD*%
D18*
%TO.C,U1*%
X182880000Y-85090000D03*
D19*
X185420000Y-85090000D03*
X187960000Y-85090000D03*
%TD*%
D14*
%TO.C,R2*%
X187960000Y-102870000D03*
D13*
X180340000Y-102870000D03*
%TD*%
D20*
%TO.C,J1*%
X55880000Y-87630000D03*
X55880000Y-90170000D03*
X55880000Y-92710000D03*
X55880000Y-95250000D03*
X55880000Y-97790000D03*
D21*
X55880000Y-100330000D03*
%TD*%
%TO.C,J4*%
X67310000Y-95250000D03*
D20*
X67310000Y-92710000D03*
%TD*%
D21*
%TO.C,JP1A1*%
X115570000Y-102870000D03*
D20*
X115570000Y-100330000D03*
X115570000Y-97790000D03*
%TD*%
D21*
%TO.C,JP1B1*%
X123190000Y-102870000D03*
D20*
X123190000Y-100330000D03*
X123190000Y-97790000D03*
%TD*%
D21*
%TO.C,JP2*%
X172720000Y-86360000D03*
D20*
X175260000Y-86360000D03*
%TD*%
D21*
%TO.C,J3*%
X208280000Y-86360000D03*
D20*
X208280000Y-88900000D03*
%TD*%
D21*
%TO.C,J2*%
X208280000Y-106680000D03*
D20*
X208280000Y-109220000D03*
%TD*%
D22*
%TO.C,C4*%
X139700000Y-106680000D03*
D14*
X144700000Y-106680000D03*
%TD*%
D22*
%TO.C,C3*%
X180340000Y-96520000D03*
D14*
X185340000Y-96520000D03*
%TD*%
D22*
%TO.C,C2*%
X194310000Y-101600000D03*
D14*
X194310000Y-96600000D03*
%TD*%
D22*
%TO.C,C1*%
X194310000Y-86360000D03*
D14*
X194310000Y-91360000D03*
%TD*%
%TO.C,C5*%
X165100000Y-104140000D03*
X165100000Y-109140000D03*
%TD*%
D10*
%TO.C,D1*%
X101600000Y-101600000D03*
D11*
X101600000Y-99060000D03*
%TD*%
%TO.C,D2*%
X93980000Y-99060000D03*
D10*
X93980000Y-101600000D03*
%TD*%
D11*
%TO.C,D3*%
X86360000Y-99060000D03*
D10*
X86360000Y-101600000D03*
%TD*%
M02*
