%TF.GenerationSoftware,KiCad,Pcbnew,(5.1.10)-1*%
%TF.CreationDate,2021-09-28T13:49:37-04:00*%
%TF.ProjectId,LED Driver,4c454420-4472-4697-9665-722e6b696361,C*%
%TF.SameCoordinates,Original*%
%TF.FileFunction,Copper,L2,Bot*%
%TF.FilePolarity,Positive*%
%FSLAX46Y46*%
G04 Gerber Fmt 4.6, Leading zero omitted, Abs format (unit mm)*
G04 Created by KiCad (PCBNEW (5.1.10)-1) date 2021-09-28 13:49:37*
%MOMM*%
%LPD*%
G01*
G04 APERTURE LIST*
%TA.AperFunction,ComponentPad*%
%ADD10R,1.800000X1.800000*%
%TD*%
%TA.AperFunction,ComponentPad*%
%ADD11C,1.800000*%
%TD*%
%TA.AperFunction,ComponentPad*%
%ADD12O,1.600000X1.600000*%
%TD*%
%TA.AperFunction,ComponentPad*%
%ADD13C,1.600000*%
%TD*%
%TA.AperFunction,ComponentPad*%
%ADD14O,1.800000X1.800000*%
%TD*%
%TA.AperFunction,ComponentPad*%
%ADD15R,1.050000X1.500000*%
%TD*%
%TA.AperFunction,ComponentPad*%
%ADD16O,1.050000X1.500000*%
%TD*%
%TA.AperFunction,ComponentPad*%
%ADD17R,1.905000X2.000000*%
%TD*%
%TA.AperFunction,ComponentPad*%
%ADD18O,1.905000X2.000000*%
%TD*%
%TA.AperFunction,ComponentPad*%
%ADD19O,1.700000X1.700000*%
%TD*%
%TA.AperFunction,ComponentPad*%
%ADD20R,1.700000X1.700000*%
%TD*%
%TA.AperFunction,ComponentPad*%
%ADD21R,1.600000X1.600000*%
%TD*%
%TA.AperFunction,Conductor*%
%ADD22C,1.270000*%
%TD*%
%TA.AperFunction,Conductor*%
%ADD23C,0.889000*%
%TD*%
%TA.AperFunction,Conductor*%
%ADD24C,0.508000*%
%TD*%
%TA.AperFunction,Conductor*%
%ADD25C,0.100000*%
%TD*%
G04 APERTURE END LIST*
D10*
%TO.P,D4,1*%
%TO.N,Net-(D4-Pad1)*%
X78740000Y-101600000D03*
D11*
%TO.P,D4,2*%
%TO.N,Net-(D1-Pad2)*%
X78740000Y-99060000D03*
%TD*%
D12*
%TO.P,R17,2*%
%TO.N,Net-(J4-Pad2)*%
X78740000Y-92710000D03*
D13*
%TO.P,R17,1*%
%TO.N,Net-(Q8-Pad3)*%
X78740000Y-85090000D03*
%TD*%
D12*
%TO.P,R16,2*%
%TO.N,Net-(J4-Pad2)*%
X93980000Y-92710000D03*
D13*
%TO.P,R16,1*%
%TO.N,Net-(Q7-Pad3)*%
X93980000Y-85090000D03*
%TD*%
D12*
%TO.P,R15,2*%
%TO.N,Net-(J4-Pad2)*%
X109220000Y-92710000D03*
D13*
%TO.P,R15,1*%
%TO.N,Net-(Q6-Pad3)*%
X109220000Y-85090000D03*
%TD*%
%TO.P,R14,1*%
%TO.N,Net-(Q5-Pad3)*%
X124460000Y-85090000D03*
D12*
%TO.P,R14,2*%
%TO.N,Net-(J4-Pad2)*%
X124460000Y-92710000D03*
%TD*%
%TO.P,R12,2*%
%TO.N,Net-(J4-Pad2)*%
X139700000Y-92710000D03*
D13*
%TO.P,R12,1*%
%TO.N,Net-(Q4-Pad3)*%
X139700000Y-85090000D03*
%TD*%
D10*
%TO.P,Q8,1*%
%TO.N,Net-(Q4-Pad1)*%
X68580000Y-83820000D03*
D14*
%TO.P,Q8,2*%
%TO.N,Net-(D4-Pad1)*%
X71120000Y-83820000D03*
%TO.P,Q8,3*%
%TO.N,Net-(Q8-Pad3)*%
X73660000Y-83820000D03*
%TD*%
%TO.P,Q7,3*%
%TO.N,Net-(Q7-Pad3)*%
X88900000Y-83820000D03*
%TO.P,Q7,2*%
%TO.N,Net-(D3-Pad1)*%
X86360000Y-83820000D03*
D10*
%TO.P,Q7,1*%
%TO.N,Net-(Q4-Pad1)*%
X83820000Y-83820000D03*
%TD*%
D14*
%TO.P,Q6,3*%
%TO.N,Net-(Q6-Pad3)*%
X104140000Y-83820000D03*
%TO.P,Q6,2*%
%TO.N,Net-(D2-Pad1)*%
X101600000Y-83820000D03*
D10*
%TO.P,Q6,1*%
%TO.N,Net-(Q4-Pad1)*%
X99060000Y-83820000D03*
%TD*%
D14*
%TO.P,Q5,3*%
%TO.N,Net-(Q5-Pad3)*%
X119380000Y-83820000D03*
%TO.P,Q5,2*%
%TO.N,Net-(D1-Pad1)*%
X116840000Y-83820000D03*
D10*
%TO.P,Q5,1*%
%TO.N,Net-(Q4-Pad1)*%
X114300000Y-83820000D03*
%TD*%
D14*
%TO.P,Q4,3*%
%TO.N,Net-(Q4-Pad3)*%
X134620000Y-83820000D03*
%TO.P,Q4,2*%
%TO.N,Net-(Q4-Pad1)*%
X132080000Y-83820000D03*
D10*
%TO.P,Q4,1*%
X129540000Y-83820000D03*
%TD*%
D14*
%TO.P,Q3,3*%
%TO.N,Net-(Q3-Pad3)*%
X167640000Y-83820000D03*
%TO.P,Q3,2*%
%TO.N,Net-(D1-Pad2)*%
X165100000Y-83820000D03*
D10*
%TO.P,Q3,1*%
%TO.N,Net-(Q2-Pad1)*%
X162560000Y-83820000D03*
%TD*%
D15*
%TO.P,Q1,1*%
%TO.N,GND*%
X175260000Y-106680000D03*
D16*
%TO.P,Q1,3*%
%TO.N,Net-(Q1-Pad3)*%
X172720000Y-106680000D03*
%TO.P,Q1,2*%
%TO.N,Net-(Q1-Pad2)*%
X173990000Y-106680000D03*
%TD*%
D15*
%TO.P,Q2,1*%
%TO.N,Net-(Q2-Pad1)*%
X159004000Y-88392000D03*
D16*
%TO.P,Q2,3*%
%TO.N,Net-(D1-Pad2)*%
X156464000Y-88392000D03*
%TO.P,Q2,2*%
%TO.N,Net-(C5-Pad1)*%
X157734000Y-88392000D03*
%TD*%
D12*
%TO.P,R1,2*%
%TO.N,Net-(C2-Pad1)*%
X200660000Y-101600000D03*
D13*
%TO.P,R1,1*%
%TO.N,GND*%
X200660000Y-93980000D03*
%TD*%
%TO.P,R3,1*%
%TO.N,UNO_D10-MEGA_D12*%
X187960000Y-106680000D03*
D12*
%TO.P,R3,2*%
%TO.N,Net-(Q1-Pad2)*%
X180340000Y-106680000D03*
%TD*%
D13*
%TO.P,R4,1*%
%TO.N,Net-(Q1-Pad3)*%
X172720000Y-100330000D03*
D12*
%TO.P,R4,2*%
%TO.N,Net-(R4-Pad2)*%
X165100000Y-100330000D03*
%TD*%
%TO.P,R5,2*%
%TO.N,Net-(R4-Pad2)*%
X165100000Y-96520000D03*
D13*
%TO.P,R5,1*%
%TO.N,VR*%
X172720000Y-96520000D03*
%TD*%
D12*
%TO.P,R6,2*%
%TO.N,GND*%
X161290000Y-109220000D03*
D13*
%TO.P,R6,1*%
%TO.N,Net-(R4-Pad2)*%
X161290000Y-101600000D03*
%TD*%
%TO.P,R7,1*%
%TO.N,Net-(R4-Pad2)*%
X157480000Y-101600000D03*
D12*
%TO.P,R7,2*%
%TO.N,Net-(C4-Pad1)*%
X157480000Y-109220000D03*
%TD*%
%TO.P,R8,2*%
%TO.N,Net-(C5-Pad1)*%
X153670000Y-101600000D03*
D13*
%TO.P,R8,1*%
%TO.N,Net-(C4-Pad1)*%
X153670000Y-109220000D03*
%TD*%
%TO.P,R9,1*%
%TO.N,Net-(Q3-Pad3)*%
X152400000Y-97790000D03*
D12*
%TO.P,R9,2*%
%TO.N,Net-(Q4-Pad1)*%
X144780000Y-97790000D03*
%TD*%
D13*
%TO.P,R10,1*%
%TO.N,Net-(Q3-Pad3)*%
X152400000Y-86360000D03*
D12*
%TO.P,R10,2*%
%TO.N,Net-(Q4-Pad1)*%
X144780000Y-86360000D03*
%TD*%
D13*
%TO.P,R11,1*%
%TO.N,Net-(Q3-Pad3)*%
X152400000Y-90170000D03*
D12*
%TO.P,R11,2*%
%TO.N,Net-(Q4-Pad1)*%
X144780000Y-90170000D03*
%TD*%
%TO.P,R13,2*%
%TO.N,Net-(Q4-Pad1)*%
X144780000Y-93980000D03*
D13*
%TO.P,R13,1*%
%TO.N,Net-(Q3-Pad3)*%
X152400000Y-93980000D03*
%TD*%
D17*
%TO.P,U1,1*%
%TO.N,Net-(C2-Pad1)*%
X182880000Y-85090000D03*
D18*
%TO.P,U1,2*%
%TO.N,Net-(C3-Pad1)*%
X185420000Y-85090000D03*
%TO.P,U1,3*%
%TO.N,VIN*%
X187960000Y-85090000D03*
%TD*%
D13*
%TO.P,R2,1*%
%TO.N,Net-(C2-Pad1)*%
X187960000Y-102870000D03*
D12*
%TO.P,R2,2*%
%TO.N,Net-(C3-Pad1)*%
X180340000Y-102870000D03*
%TD*%
D19*
%TO.P,J1,6*%
%TO.N,Net-(D1-Pad2)*%
X55880000Y-87630000D03*
%TO.P,J1,5*%
%TO.N,Net-(D4-Pad1)*%
X55880000Y-90170000D03*
%TO.P,J1,4*%
%TO.N,Net-(D3-Pad1)*%
X55880000Y-92710000D03*
%TO.P,J1,3*%
%TO.N,Net-(D2-Pad1)*%
X55880000Y-95250000D03*
%TO.P,J1,2*%
%TO.N,Net-(D1-Pad1)*%
X55880000Y-97790000D03*
D20*
%TO.P,J1,1*%
%TO.N,Net-(D1-Pad2)*%
X55880000Y-100330000D03*
%TD*%
%TO.P,J4,1*%
%TO.N,Net-(D1-Pad2)*%
X67310000Y-95250000D03*
D19*
%TO.P,J4,2*%
%TO.N,Net-(J4-Pad2)*%
X67310000Y-92710000D03*
%TD*%
D20*
%TO.P,JP1A1,1*%
%TO.N,GND*%
X115570000Y-102870000D03*
D19*
%TO.P,JP1A1,2*%
%TO.N,Net-(D1-Pad2)*%
X115570000Y-100330000D03*
%TO.P,JP1A1,3*%
%TO.N,VR*%
X115570000Y-97790000D03*
%TD*%
D20*
%TO.P,JP1B1,1*%
%TO.N,GND*%
X123190000Y-102870000D03*
D19*
%TO.P,JP1B1,2*%
%TO.N,Net-(J4-Pad2)*%
X123190000Y-100330000D03*
%TO.P,JP1B1,3*%
%TO.N,VR*%
X123190000Y-97790000D03*
%TD*%
D20*
%TO.P,JP2,1*%
%TO.N,VR*%
X172720000Y-86360000D03*
D19*
%TO.P,JP2,2*%
%TO.N,Net-(C3-Pad1)*%
X175260000Y-86360000D03*
%TD*%
D20*
%TO.P,J3,1*%
%TO.N,VIN*%
X208280000Y-86360000D03*
D19*
%TO.P,J3,2*%
%TO.N,GND*%
X208280000Y-88900000D03*
%TD*%
D20*
%TO.P,J2,1*%
%TO.N,UNO_D10-MEGA_D12*%
X208280000Y-106680000D03*
D19*
%TO.P,J2,2*%
%TO.N,GND*%
X208280000Y-109220000D03*
%TD*%
D21*
%TO.P,C4,1*%
%TO.N,Net-(C4-Pad1)*%
X139700000Y-106680000D03*
D13*
%TO.P,C4,2*%
%TO.N,GND*%
X144700000Y-106680000D03*
%TD*%
D21*
%TO.P,C3,1*%
%TO.N,Net-(C3-Pad1)*%
X180340000Y-96520000D03*
D13*
%TO.P,C3,2*%
%TO.N,GND*%
X185340000Y-96520000D03*
%TD*%
D21*
%TO.P,C2,1*%
%TO.N,Net-(C2-Pad1)*%
X194310000Y-101600000D03*
D13*
%TO.P,C2,2*%
%TO.N,GND*%
X194310000Y-96600000D03*
%TD*%
D21*
%TO.P,C1,1*%
%TO.N,VIN*%
X194310000Y-86360000D03*
D13*
%TO.P,C1,2*%
%TO.N,GND*%
X194310000Y-91360000D03*
%TD*%
%TO.P,C5,1*%
%TO.N,Net-(C5-Pad1)*%
X165100000Y-104140000D03*
%TO.P,C5,2*%
%TO.N,GND*%
X165100000Y-109140000D03*
%TD*%
D10*
%TO.P,D1,1*%
%TO.N,Net-(D1-Pad1)*%
X101600000Y-101600000D03*
D11*
%TO.P,D1,2*%
%TO.N,Net-(D1-Pad2)*%
X101600000Y-99060000D03*
%TD*%
%TO.P,D2,2*%
%TO.N,Net-(D1-Pad2)*%
X93980000Y-99060000D03*
D10*
%TO.P,D2,1*%
%TO.N,Net-(D2-Pad1)*%
X93980000Y-101600000D03*
%TD*%
D11*
%TO.P,D3,2*%
%TO.N,Net-(D1-Pad2)*%
X86360000Y-99060000D03*
D10*
%TO.P,D3,1*%
%TO.N,Net-(D3-Pad1)*%
X86360000Y-101600000D03*
%TD*%
D22*
%TO.N,GND*%
X210820000Y-109220000D02*
X208280000Y-109220000D01*
X208280000Y-109220000D02*
X185420000Y-109220000D01*
D23*
X175260000Y-106680000D02*
X175260000Y-109220000D01*
D22*
X175260000Y-109220000D02*
X185420000Y-109220000D01*
X123190000Y-102870000D02*
X141930000Y-102870000D01*
X115570000Y-102870000D02*
X123190000Y-102870000D01*
X144700000Y-106680000D02*
X144780000Y-106680000D01*
X144780000Y-105720000D02*
X141930000Y-102870000D01*
X144780000Y-106680000D02*
X144780000Y-105720000D01*
X185340000Y-109140000D02*
X185420000Y-109220000D01*
X185340000Y-96520000D02*
X185340000Y-109140000D01*
X194310000Y-91360000D02*
X194310000Y-96600000D01*
X210820000Y-93980000D02*
X210820000Y-88900000D01*
X210820000Y-88900000D02*
X208280000Y-88900000D01*
X210820000Y-106016998D02*
X210820000Y-93980000D01*
X210820000Y-109220000D02*
X210820000Y-106016998D01*
X161370000Y-109140000D02*
X161290000Y-109220000D01*
X165100000Y-109140000D02*
X161370000Y-109140000D01*
X144700000Y-106680000D02*
X158750000Y-106680000D01*
X158750000Y-106680000D02*
X161290000Y-109220000D01*
X198040000Y-96600000D02*
X200660000Y-93980000D01*
X194310000Y-96600000D02*
X198040000Y-96600000D01*
X200660000Y-93980000D02*
X210820000Y-93980000D01*
X165180000Y-109220000D02*
X165100000Y-109140000D01*
X175260000Y-109220000D02*
X165180000Y-109220000D01*
%TO.N,VIN*%
X187960000Y-85090000D02*
X187960000Y-86360000D01*
X208280000Y-86360000D02*
X194310000Y-86360000D01*
X194310000Y-86360000D02*
X187960000Y-86360000D01*
%TO.N,Net-(C2-Pad1)*%
X187960000Y-102870000D02*
X189230000Y-102870000D01*
X189230000Y-102870000D02*
X190500000Y-101600000D01*
X200660000Y-101600000D02*
X194310000Y-101600000D01*
X194310000Y-101600000D02*
X190500000Y-101600000D01*
X187960000Y-102870000D02*
X187960000Y-93980000D01*
X187960000Y-93980000D02*
X182880000Y-88900000D01*
X182880000Y-85090000D02*
X182880000Y-88900000D01*
%TO.N,Net-(C3-Pad1)*%
X185420000Y-85090000D02*
X185420000Y-82550000D01*
X185420000Y-82550000D02*
X180340000Y-82550000D01*
X180340000Y-93980000D02*
X180340000Y-82550000D01*
X175260000Y-86360000D02*
X175260000Y-93980000D01*
X175260000Y-93980000D02*
X180340000Y-93980000D01*
X180340000Y-102870000D02*
X180340000Y-96520000D01*
X180340000Y-96520000D02*
X180340000Y-93980000D01*
%TO.N,Net-(C4-Pad1)*%
X157480000Y-109220000D02*
X153670000Y-109220000D01*
X153670000Y-109220000D02*
X142240000Y-109220000D01*
X142240000Y-109220000D02*
X139700000Y-106680000D01*
%TO.N,Net-(C5-Pad1)*%
X167640000Y-94488000D02*
X162560000Y-94488000D01*
X162560000Y-94488000D02*
X162560000Y-99060000D01*
D23*
X157734000Y-88392000D02*
X157734000Y-86106000D01*
X155448000Y-83820000D02*
X149860000Y-83820000D01*
X157734000Y-86106000D02*
X155448000Y-83820000D01*
X149860000Y-83820000D02*
X149860000Y-101600000D01*
X153670000Y-101600000D02*
X149860000Y-101600000D01*
D22*
X153670000Y-101600000D02*
X156210000Y-99060000D01*
X156210000Y-99060000D02*
X162560000Y-99060000D01*
X165100000Y-104140000D02*
X166370000Y-104140000D01*
X167640000Y-102870000D02*
X167640000Y-94488000D01*
X166370000Y-104140000D02*
X167640000Y-102870000D01*
D23*
%TO.N,Net-(D1-Pad1)*%
X116840000Y-90170000D02*
X116840000Y-83820000D01*
X65972081Y-90170000D02*
X116840000Y-90170000D01*
X65972081Y-90170000D02*
X65972081Y-90237919D01*
X58420000Y-97790000D02*
X55880000Y-97790000D01*
X65972081Y-90237919D02*
X58420000Y-97790000D01*
%TO.N,Net-(D1-Pad2)*%
X156464000Y-88392000D02*
X156464000Y-90424000D01*
X156464000Y-90424000D02*
X165100000Y-90424000D01*
X165100000Y-90424000D02*
X165100000Y-83820000D01*
D22*
X165100000Y-81280000D02*
X147320000Y-81280000D01*
X165100000Y-83820000D02*
X165100000Y-81280000D01*
X147320000Y-78740000D02*
X147320000Y-81280000D01*
X72390000Y-95250000D02*
X64770000Y-95250000D01*
X110490000Y-100330000D02*
X115570000Y-100330000D01*
X105410000Y-95250000D02*
X110490000Y-100330000D01*
X55880000Y-100330000D02*
X59690000Y-100330000D01*
X59690000Y-100330000D02*
X64770000Y-95250000D01*
X55880000Y-100330000D02*
X53340000Y-100330000D01*
X53340000Y-100330000D02*
X53340000Y-87630000D01*
X53340000Y-87630000D02*
X55880000Y-87630000D01*
X55880000Y-87630000D02*
X58420000Y-87630000D01*
X58420000Y-87630000D02*
X67310000Y-78740000D01*
X67310000Y-78740000D02*
X147320000Y-78740000D01*
X78740000Y-99060000D02*
X78740000Y-95250000D01*
X72390000Y-95250000D02*
X78740000Y-95250000D01*
X86360000Y-99060000D02*
X86360000Y-95250000D01*
X78740000Y-95250000D02*
X86360000Y-95250000D01*
X93980000Y-99060000D02*
X93980000Y-95250000D01*
X86360000Y-95250000D02*
X93980000Y-95250000D01*
X101600000Y-99060000D02*
X101600000Y-95250000D01*
X101600000Y-95250000D02*
X105410000Y-95250000D01*
X93980000Y-95250000D02*
X101600000Y-95250000D01*
D23*
%TO.N,Net-(D2-Pad1)*%
X64770000Y-88900000D02*
X101600000Y-88900000D01*
X101600000Y-88900000D02*
X101600000Y-83820000D01*
X64770000Y-88900000D02*
X58420000Y-95250000D01*
X58420000Y-95250000D02*
X55880000Y-95250000D01*
%TO.N,Net-(D3-Pad1)*%
X63500000Y-87630000D02*
X86360000Y-87630000D01*
X86360000Y-87630000D02*
X86360000Y-83820000D01*
X63500000Y-87630000D02*
X58420000Y-92710000D01*
X58420000Y-92710000D02*
X55880000Y-92710000D01*
%TO.N,Net-(D4-Pad1)*%
X71120000Y-86360000D02*
X71120000Y-83820000D01*
X62230000Y-86360000D02*
X71120000Y-86360000D01*
X62230000Y-86360000D02*
X58420000Y-90170000D01*
X58420000Y-90170000D02*
X55880000Y-90170000D01*
D22*
%TO.N,UNO_D10-MEGA_D12*%
X193040000Y-106680000D02*
X208280000Y-106680000D01*
X187960000Y-106680000D02*
X193040000Y-106680000D01*
%TO.N,Net-(J4-Pad2)*%
X78740000Y-92710000D02*
X93980000Y-92710000D01*
X124460000Y-92710000D02*
X139700000Y-92710000D01*
X121920000Y-92710000D02*
X124460000Y-92710000D01*
X105410000Y-92710000D02*
X109220000Y-92710000D01*
X93980000Y-92710000D02*
X105410000Y-92710000D01*
X123190000Y-100330000D02*
X120650000Y-100330000D01*
X120650000Y-100330000D02*
X120650000Y-92710000D01*
X120650000Y-92710000D02*
X121920000Y-92710000D01*
X109220000Y-92710000D02*
X120650000Y-92710000D01*
X78740000Y-92710000D02*
X67310000Y-92710000D01*
%TO.N,VR*%
X172720000Y-86360000D02*
X172720000Y-96520000D01*
X142240000Y-100330000D02*
X139700000Y-97790000D01*
X139700000Y-97790000D02*
X123190000Y-97790000D01*
X145542000Y-100330000D02*
X142240000Y-100330000D01*
X161290000Y-104140000D02*
X149352000Y-104140000D01*
X149352000Y-104140000D02*
X145542000Y-100330000D01*
X163830000Y-106680000D02*
X161290000Y-104140000D01*
X170180000Y-106680000D02*
X163830000Y-106680000D01*
X170180000Y-96520000D02*
X170180000Y-106680000D01*
X172720000Y-96520000D02*
X170180000Y-96520000D01*
D23*
%TO.N,Net-(Q1-Pad2)*%
X173990000Y-106680000D02*
X173990000Y-105410000D01*
X173990000Y-105410000D02*
X175260000Y-104140000D01*
X177800000Y-104140000D02*
X180340000Y-106680000D01*
X175260000Y-104140000D02*
X177800000Y-104140000D01*
%TO.N,Net-(Q1-Pad3)*%
X172720000Y-106680000D02*
X172720000Y-100330000D01*
%TO.N,Net-(Q2-Pad1)*%
X162560000Y-83820000D02*
X162560000Y-88392000D01*
X162560000Y-88392000D02*
X159004000Y-88392000D01*
D22*
%TO.N,Net-(Q3-Pad3)*%
X152400000Y-97790000D02*
X152400000Y-93980000D01*
X152400000Y-90170000D02*
X152400000Y-86360000D01*
X152400000Y-91440000D02*
X152400000Y-90170000D01*
X167640000Y-83820000D02*
X167640000Y-92456000D01*
X167640000Y-92456000D02*
X152400000Y-92456000D01*
X152400000Y-92456000D02*
X152400000Y-91440000D01*
X152400000Y-93980000D02*
X152400000Y-92456000D01*
%TO.N,Net-(Q4-Pad3)*%
X134620000Y-83820000D02*
X139700000Y-83820000D01*
X139700000Y-83820000D02*
X139700000Y-85090000D01*
%TO.N,Net-(Q4-Pad1)*%
X132080000Y-83820000D02*
X132080000Y-81280000D01*
X144780000Y-86360000D02*
X144780000Y-90170000D01*
X144780000Y-90170000D02*
X144780000Y-93980000D01*
X144780000Y-93980000D02*
X144780000Y-97790000D01*
X129540000Y-81280000D02*
X129540000Y-83820000D01*
X144780000Y-81280000D02*
X129540000Y-81280000D01*
X144780000Y-86360000D02*
X144780000Y-81280000D01*
X129540000Y-81280000D02*
X114300000Y-81280000D01*
X114300000Y-81280000D02*
X114300000Y-83820000D01*
X114300000Y-81280000D02*
X99060000Y-81280000D01*
X99060000Y-81280000D02*
X99060000Y-83820000D01*
X99060000Y-81280000D02*
X83820000Y-81280000D01*
X83820000Y-81280000D02*
X83820000Y-83820000D01*
X83820000Y-81280000D02*
X68580000Y-81280000D01*
X68580000Y-81280000D02*
X68580000Y-83820000D01*
%TO.N,Net-(Q5-Pad3)*%
X119380000Y-83820000D02*
X124460000Y-83820000D01*
X124460000Y-83820000D02*
X124460000Y-85090000D01*
%TO.N,Net-(Q6-Pad3)*%
X104140000Y-83820000D02*
X109220000Y-83820000D01*
X109220000Y-83820000D02*
X109220000Y-85090000D01*
%TO.N,Net-(Q7-Pad3)*%
X88900000Y-83820000D02*
X93980000Y-83820000D01*
X93980000Y-83820000D02*
X93980000Y-85090000D01*
%TO.N,Net-(Q8-Pad3)*%
X73660000Y-83820000D02*
X78740000Y-83820000D01*
X78740000Y-83820000D02*
X78740000Y-85090000D01*
%TO.N,Net-(R4-Pad2)*%
X157480000Y-101600000D02*
X161290000Y-101600000D01*
X163830000Y-101600000D02*
X165100000Y-100330000D01*
X161290000Y-101600000D02*
X163830000Y-101600000D01*
X165100000Y-100330000D02*
X165100000Y-96520000D01*
%TD*%
D24*
%TO.N,GND*%
X66114521Y-77421007D02*
X66114516Y-77421012D01*
X66046682Y-77476682D01*
X65991012Y-77544516D01*
X57683529Y-85852000D01*
X56795486Y-85852000D01*
X56461337Y-85713590D01*
X56076293Y-85637000D01*
X55683707Y-85637000D01*
X55298663Y-85713590D01*
X54964514Y-85852000D01*
X53427338Y-85852000D01*
X53340000Y-85843398D01*
X53252662Y-85852000D01*
X52991451Y-85877727D01*
X52656297Y-85979395D01*
X52347417Y-86144495D01*
X52076682Y-86366682D01*
X51854495Y-86637417D01*
X51689395Y-86946297D01*
X51587727Y-87281451D01*
X51553398Y-87630000D01*
X51562001Y-87717348D01*
X51562000Y-100242662D01*
X51553398Y-100330000D01*
X51587727Y-100678549D01*
X51689395Y-101013703D01*
X51854495Y-101322583D01*
X51925113Y-101408631D01*
X52076682Y-101593318D01*
X52347417Y-101815505D01*
X52656297Y-101980605D01*
X52991451Y-102082273D01*
X53340000Y-102116602D01*
X53427338Y-102108000D01*
X54359051Y-102108000D01*
X54391911Y-102134968D01*
X54590477Y-102241103D01*
X54805933Y-102306461D01*
X55030000Y-102328530D01*
X56730000Y-102328530D01*
X56954067Y-102306461D01*
X57169523Y-102241103D01*
X57368089Y-102134968D01*
X57400949Y-102108000D01*
X59602673Y-102108000D01*
X59690000Y-102116601D01*
X59777327Y-102108000D01*
X59777338Y-102108000D01*
X60038549Y-102082273D01*
X60373703Y-101980605D01*
X60682583Y-101815505D01*
X60953318Y-101593318D01*
X61008993Y-101525478D01*
X65506472Y-97028000D01*
X65789051Y-97028000D01*
X65821911Y-97054968D01*
X66020477Y-97161103D01*
X66235933Y-97226461D01*
X66460000Y-97248530D01*
X68160000Y-97248530D01*
X68384067Y-97226461D01*
X68599523Y-97161103D01*
X68798089Y-97054968D01*
X68830949Y-97028000D01*
X76962001Y-97028000D01*
X76962000Y-98043662D01*
X76929517Y-98092277D01*
X76775512Y-98464079D01*
X76697000Y-98858782D01*
X76697000Y-99261218D01*
X76775512Y-99655921D01*
X76924007Y-100014420D01*
X76885032Y-100061911D01*
X76778897Y-100260477D01*
X76713539Y-100475933D01*
X76691470Y-100700000D01*
X76691470Y-102500000D01*
X76713539Y-102724067D01*
X76778897Y-102939523D01*
X76885032Y-103138089D01*
X77027867Y-103312133D01*
X77201911Y-103454968D01*
X77400477Y-103561103D01*
X77615933Y-103626461D01*
X77840000Y-103648530D01*
X79640000Y-103648530D01*
X79864067Y-103626461D01*
X80079523Y-103561103D01*
X80278089Y-103454968D01*
X80452133Y-103312133D01*
X80594968Y-103138089D01*
X80701103Y-102939523D01*
X80766461Y-102724067D01*
X80788530Y-102500000D01*
X80788530Y-100700000D01*
X80766461Y-100475933D01*
X80701103Y-100260477D01*
X80594968Y-100061911D01*
X80555993Y-100014420D01*
X80704488Y-99655921D01*
X80783000Y-99261218D01*
X80783000Y-98858782D01*
X80704488Y-98464079D01*
X80550483Y-98092277D01*
X80518000Y-98043663D01*
X80518000Y-97028000D01*
X84582001Y-97028000D01*
X84582000Y-98043662D01*
X84549517Y-98092277D01*
X84395512Y-98464079D01*
X84317000Y-98858782D01*
X84317000Y-99261218D01*
X84395512Y-99655921D01*
X84544007Y-100014420D01*
X84505032Y-100061911D01*
X84398897Y-100260477D01*
X84333539Y-100475933D01*
X84311470Y-100700000D01*
X84311470Y-102500000D01*
X84333539Y-102724067D01*
X84398897Y-102939523D01*
X84505032Y-103138089D01*
X84647867Y-103312133D01*
X84821911Y-103454968D01*
X85020477Y-103561103D01*
X85235933Y-103626461D01*
X85460000Y-103648530D01*
X87260000Y-103648530D01*
X87484067Y-103626461D01*
X87699523Y-103561103D01*
X87898089Y-103454968D01*
X88072133Y-103312133D01*
X88214968Y-103138089D01*
X88321103Y-102939523D01*
X88386461Y-102724067D01*
X88408530Y-102500000D01*
X88408530Y-100700000D01*
X88386461Y-100475933D01*
X88321103Y-100260477D01*
X88214968Y-100061911D01*
X88175993Y-100014420D01*
X88324488Y-99655921D01*
X88403000Y-99261218D01*
X88403000Y-98858782D01*
X88324488Y-98464079D01*
X88170483Y-98092277D01*
X88138000Y-98043663D01*
X88138000Y-97028000D01*
X92202001Y-97028000D01*
X92202000Y-98043662D01*
X92169517Y-98092277D01*
X92015512Y-98464079D01*
X91937000Y-98858782D01*
X91937000Y-99261218D01*
X92015512Y-99655921D01*
X92164007Y-100014420D01*
X92125032Y-100061911D01*
X92018897Y-100260477D01*
X91953539Y-100475933D01*
X91931470Y-100700000D01*
X91931470Y-102500000D01*
X91953539Y-102724067D01*
X92018897Y-102939523D01*
X92125032Y-103138089D01*
X92267867Y-103312133D01*
X92441911Y-103454968D01*
X92640477Y-103561103D01*
X92855933Y-103626461D01*
X93080000Y-103648530D01*
X94880000Y-103648530D01*
X95104067Y-103626461D01*
X95319523Y-103561103D01*
X95518089Y-103454968D01*
X95692133Y-103312133D01*
X95834968Y-103138089D01*
X95941103Y-102939523D01*
X96006461Y-102724067D01*
X96028530Y-102500000D01*
X96028530Y-100700000D01*
X96006461Y-100475933D01*
X95941103Y-100260477D01*
X95834968Y-100061911D01*
X95795993Y-100014420D01*
X95944488Y-99655921D01*
X96023000Y-99261218D01*
X96023000Y-98858782D01*
X95944488Y-98464079D01*
X95790483Y-98092277D01*
X95758000Y-98043663D01*
X95758000Y-97028000D01*
X99822001Y-97028000D01*
X99822000Y-98043662D01*
X99789517Y-98092277D01*
X99635512Y-98464079D01*
X99557000Y-98858782D01*
X99557000Y-99261218D01*
X99635512Y-99655921D01*
X99784007Y-100014420D01*
X99745032Y-100061911D01*
X99638897Y-100260477D01*
X99573539Y-100475933D01*
X99551470Y-100700000D01*
X99551470Y-102500000D01*
X99573539Y-102724067D01*
X99638897Y-102939523D01*
X99745032Y-103138089D01*
X99887867Y-103312133D01*
X100061911Y-103454968D01*
X100260477Y-103561103D01*
X100475933Y-103626461D01*
X100700000Y-103648530D01*
X102500000Y-103648530D01*
X102724067Y-103626461D01*
X102939523Y-103561103D01*
X103138089Y-103454968D01*
X103312133Y-103312133D01*
X103454968Y-103138089D01*
X103561103Y-102939523D01*
X103626461Y-102724067D01*
X103648530Y-102500000D01*
X103648530Y-100700000D01*
X103626461Y-100475933D01*
X103561103Y-100260477D01*
X103454968Y-100061911D01*
X103415993Y-100014420D01*
X103564488Y-99655921D01*
X103643000Y-99261218D01*
X103643000Y-98858782D01*
X103564488Y-98464079D01*
X103410483Y-98092277D01*
X103378000Y-98043663D01*
X103378000Y-97028000D01*
X104673529Y-97028000D01*
X109171012Y-101525484D01*
X109226682Y-101593318D01*
X109294516Y-101648988D01*
X109294521Y-101648993D01*
X109497417Y-101815505D01*
X109806297Y-101980605D01*
X110141451Y-102082273D01*
X110402662Y-102108000D01*
X110402672Y-102108000D01*
X110490000Y-102116601D01*
X110577327Y-102108000D01*
X113572772Y-102108000D01*
X113577000Y-102393750D01*
X113862750Y-102679500D01*
X115379500Y-102679500D01*
X115379500Y-102659500D01*
X115760500Y-102659500D01*
X115760500Y-102679500D01*
X117277250Y-102679500D01*
X117563000Y-102393750D01*
X117568530Y-102020000D01*
X117546461Y-101795933D01*
X117481103Y-101580477D01*
X117374968Y-101381911D01*
X117313853Y-101307443D01*
X117336173Y-101274039D01*
X117486410Y-100911337D01*
X117563000Y-100526293D01*
X117563000Y-100133707D01*
X117486410Y-99748663D01*
X117336173Y-99385961D01*
X117118373Y-99060000D01*
X117336173Y-98734039D01*
X117486410Y-98371337D01*
X117563000Y-97986293D01*
X117563000Y-97593707D01*
X117486410Y-97208663D01*
X117336173Y-96845961D01*
X117118064Y-96519537D01*
X116840463Y-96241936D01*
X116514039Y-96023827D01*
X116151337Y-95873590D01*
X115766293Y-95797000D01*
X115373707Y-95797000D01*
X114988663Y-95873590D01*
X114625961Y-96023827D01*
X114299537Y-96241936D01*
X114021936Y-96519537D01*
X113803827Y-96845961D01*
X113653590Y-97208663D01*
X113577000Y-97593707D01*
X113577000Y-97986293D01*
X113653590Y-98371337D01*
X113728424Y-98552000D01*
X111226472Y-98552000D01*
X107162471Y-94488000D01*
X108435169Y-94488000D01*
X108653248Y-94578331D01*
X109028631Y-94653000D01*
X109411369Y-94653000D01*
X109786752Y-94578331D01*
X110004831Y-94488000D01*
X118872001Y-94488000D01*
X118872000Y-100242662D01*
X118863398Y-100330000D01*
X118897727Y-100678549D01*
X118999395Y-101013703D01*
X119164495Y-101322583D01*
X119235113Y-101408631D01*
X119386682Y-101593318D01*
X119657417Y-101815505D01*
X119966297Y-101980605D01*
X120301451Y-102082273D01*
X120650000Y-102116602D01*
X120737338Y-102108000D01*
X121192772Y-102108000D01*
X121197000Y-102393750D01*
X121482750Y-102679500D01*
X122999500Y-102679500D01*
X122999500Y-102659500D01*
X123380500Y-102659500D01*
X123380500Y-102679500D01*
X124897250Y-102679500D01*
X125183000Y-102393750D01*
X125188530Y-102020000D01*
X125166461Y-101795933D01*
X125101103Y-101580477D01*
X124994968Y-101381911D01*
X124933853Y-101307443D01*
X124956173Y-101274039D01*
X125106410Y-100911337D01*
X125183000Y-100526293D01*
X125183000Y-100133707D01*
X125106410Y-99748663D01*
X125031576Y-99568000D01*
X138963529Y-99568000D01*
X140921007Y-101525478D01*
X140976682Y-101593318D01*
X141044521Y-101648992D01*
X141247416Y-101815505D01*
X141412516Y-101903752D01*
X141556297Y-101980605D01*
X141891451Y-102082273D01*
X142152662Y-102108000D01*
X142152672Y-102108000D01*
X142239999Y-102116601D01*
X142327327Y-102108000D01*
X144805529Y-102108000D01*
X148033012Y-105335484D01*
X148088682Y-105403318D01*
X148156516Y-105458988D01*
X148156521Y-105458993D01*
X148343707Y-105612612D01*
X148359417Y-105625505D01*
X148668297Y-105790605D01*
X149003451Y-105892273D01*
X149264662Y-105918000D01*
X149264670Y-105918000D01*
X149352000Y-105926601D01*
X149439330Y-105918000D01*
X160553529Y-105918000D01*
X162099462Y-107463933D01*
X161926538Y-107384220D01*
X161780642Y-107339968D01*
X161480500Y-107573735D01*
X161480500Y-109029500D01*
X161500500Y-109029500D01*
X161500500Y-109410500D01*
X161480500Y-109410500D01*
X161480500Y-110866265D01*
X161780642Y-111100032D01*
X161926538Y-111055780D01*
X162272450Y-110896324D01*
X162580607Y-110672447D01*
X162790424Y-110445480D01*
X164063927Y-110445480D01*
X164112001Y-110823962D01*
X164459509Y-110984354D01*
X164831632Y-111073869D01*
X165214068Y-111089066D01*
X165592120Y-111029362D01*
X165951260Y-110897050D01*
X166087999Y-110823962D01*
X166136073Y-110445480D01*
X165100000Y-109409408D01*
X164063927Y-110445480D01*
X162790424Y-110445480D01*
X162839167Y-110392754D01*
X163038193Y-110067992D01*
X163170037Y-109710643D01*
X162937896Y-109410502D01*
X163175639Y-109410502D01*
X163210638Y-109632120D01*
X163342950Y-109991260D01*
X163416038Y-110127999D01*
X163794520Y-110176073D01*
X164830592Y-109140000D01*
X164816450Y-109125858D01*
X165085858Y-108856450D01*
X165100000Y-108870592D01*
X165114142Y-108856450D01*
X165383550Y-109125858D01*
X165369408Y-109140000D01*
X166405480Y-110176073D01*
X166783962Y-110127999D01*
X166944354Y-109780491D01*
X166959265Y-109718501D01*
X206350351Y-109718501D01*
X206398599Y-109877569D01*
X206563035Y-110231977D01*
X206793453Y-110547495D01*
X207080998Y-110811999D01*
X207414620Y-111015323D01*
X207781498Y-111149654D01*
X208089500Y-110918130D01*
X208089500Y-109410500D01*
X208470500Y-109410500D01*
X208470500Y-110918130D01*
X208778502Y-111149654D01*
X209145380Y-111015323D01*
X209479002Y-110811999D01*
X209766547Y-110547495D01*
X209996965Y-110231977D01*
X210161401Y-109877569D01*
X210209649Y-109718501D01*
X209976588Y-109410500D01*
X208470500Y-109410500D01*
X208089500Y-109410500D01*
X206583412Y-109410500D01*
X206350351Y-109718501D01*
X166959265Y-109718501D01*
X167033869Y-109408368D01*
X167049066Y-109025932D01*
X166989362Y-108647880D01*
X166919408Y-108458000D01*
X170092662Y-108458000D01*
X170180000Y-108466602D01*
X170528549Y-108432273D01*
X170863703Y-108330605D01*
X171172583Y-108165505D01*
X171425996Y-107957534D01*
X171534840Y-108090160D01*
X171788825Y-108298601D01*
X172078596Y-108453487D01*
X172393015Y-108548865D01*
X172720000Y-108581070D01*
X173046984Y-108548865D01*
X173355000Y-108455429D01*
X173663015Y-108548865D01*
X173990000Y-108581070D01*
X174316984Y-108548865D01*
X174401438Y-108523246D01*
X174510933Y-108556461D01*
X174735000Y-108578530D01*
X174783750Y-108573000D01*
X175069500Y-108287250D01*
X175069500Y-108176873D01*
X175175160Y-108090160D01*
X175383601Y-107836175D01*
X175450500Y-107711016D01*
X175450500Y-108287250D01*
X175736250Y-108573000D01*
X175785000Y-108578530D01*
X176009067Y-108556461D01*
X176224523Y-108491103D01*
X176423089Y-108384968D01*
X176597133Y-108242133D01*
X176739968Y-108068089D01*
X176846103Y-107869523D01*
X176911461Y-107654067D01*
X176933530Y-107430000D01*
X176928000Y-107156250D01*
X176642250Y-106870500D01*
X175658000Y-106870500D01*
X175658000Y-106489500D01*
X176642250Y-106489500D01*
X176928000Y-106203750D01*
X176933530Y-105930000D01*
X176913585Y-105727500D01*
X177142437Y-105727500D01*
X178424486Y-107009550D01*
X178471669Y-107246752D01*
X178618136Y-107600355D01*
X178830774Y-107918590D01*
X179101410Y-108189226D01*
X179419645Y-108401864D01*
X179773248Y-108548331D01*
X180148631Y-108623000D01*
X180531369Y-108623000D01*
X180906752Y-108548331D01*
X181260355Y-108401864D01*
X181578590Y-108189226D01*
X181849226Y-107918590D01*
X182061864Y-107600355D01*
X182208331Y-107246752D01*
X182283000Y-106871369D01*
X182283000Y-106488631D01*
X182208331Y-106113248D01*
X182061864Y-105759645D01*
X181849226Y-105441410D01*
X181578590Y-105170774D01*
X181260355Y-104958136D01*
X180906752Y-104811669D01*
X180722406Y-104775000D01*
X180906752Y-104738331D01*
X181260355Y-104591864D01*
X181578590Y-104379226D01*
X181849226Y-104108590D01*
X182061864Y-103790355D01*
X182208331Y-103436752D01*
X182283000Y-103061369D01*
X182283000Y-102678631D01*
X182208331Y-102303248D01*
X182118000Y-102085169D01*
X182118000Y-97914999D01*
X182201103Y-97759523D01*
X182266461Y-97544067D01*
X182288530Y-97320000D01*
X182288530Y-96634068D01*
X183390934Y-96634068D01*
X183450638Y-97012120D01*
X183582950Y-97371260D01*
X183656038Y-97507999D01*
X184034520Y-97556073D01*
X185070592Y-96520000D01*
X184034520Y-95483927D01*
X183656038Y-95532001D01*
X183495646Y-95879509D01*
X183406131Y-96251632D01*
X183390934Y-96634068D01*
X182288530Y-96634068D01*
X182288530Y-95720000D01*
X182266461Y-95495933D01*
X182201103Y-95280477D01*
X182118000Y-95125001D01*
X182118000Y-94067337D01*
X182126602Y-93980000D01*
X182118000Y-93892662D01*
X182118000Y-90652471D01*
X186182001Y-94716473D01*
X186182001Y-94768653D01*
X185980491Y-94675646D01*
X185608368Y-94586131D01*
X185225932Y-94570934D01*
X184847880Y-94630638D01*
X184488740Y-94762950D01*
X184352001Y-94836038D01*
X184303927Y-95214520D01*
X185340000Y-96250592D01*
X185354142Y-96236450D01*
X185623550Y-96505858D01*
X185609408Y-96520000D01*
X185623550Y-96534142D01*
X185354142Y-96803550D01*
X185340000Y-96789408D01*
X184303927Y-97825480D01*
X184352001Y-98203962D01*
X184699509Y-98364354D01*
X185071632Y-98453869D01*
X185454068Y-98469066D01*
X185832120Y-98409362D01*
X186182001Y-98280461D01*
X186182000Y-102085169D01*
X186091669Y-102303248D01*
X186017000Y-102678631D01*
X186017000Y-103061369D01*
X186091669Y-103436752D01*
X186238136Y-103790355D01*
X186450774Y-104108590D01*
X186721410Y-104379226D01*
X187039645Y-104591864D01*
X187393248Y-104738331D01*
X187577594Y-104775000D01*
X187393248Y-104811669D01*
X187039645Y-104958136D01*
X186721410Y-105170774D01*
X186450774Y-105441410D01*
X186238136Y-105759645D01*
X186091669Y-106113248D01*
X186017000Y-106488631D01*
X186017000Y-106871369D01*
X186091669Y-107246752D01*
X186238136Y-107600355D01*
X186450774Y-107918590D01*
X186721410Y-108189226D01*
X187039645Y-108401864D01*
X187393248Y-108548331D01*
X187768631Y-108623000D01*
X188151369Y-108623000D01*
X188526752Y-108548331D01*
X188744831Y-108458000D01*
X206447052Y-108458000D01*
X206398599Y-108562431D01*
X206350351Y-108721499D01*
X206583412Y-109029500D01*
X208089500Y-109029500D01*
X208089500Y-109009500D01*
X208470500Y-109009500D01*
X208470500Y-109029500D01*
X209976588Y-109029500D01*
X210209649Y-108721499D01*
X210161401Y-108562431D01*
X210046525Y-108314838D01*
X214427000Y-108314838D01*
X214427000Y-108855162D01*
X214532412Y-109385104D01*
X214739185Y-109884298D01*
X215039373Y-110333560D01*
X215421440Y-110715627D01*
X215870702Y-111015815D01*
X216369896Y-111222588D01*
X216899838Y-111328000D01*
X217440162Y-111328000D01*
X217970104Y-111222588D01*
X218469298Y-111015815D01*
X218918560Y-110715627D01*
X219300627Y-110333560D01*
X219600815Y-109884298D01*
X219807588Y-109385104D01*
X219913000Y-108855162D01*
X219913000Y-108314838D01*
X219807588Y-107784896D01*
X219600815Y-107285702D01*
X219300627Y-106836440D01*
X218918560Y-106454373D01*
X218469298Y-106154185D01*
X217970104Y-105947412D01*
X217440162Y-105842000D01*
X216899838Y-105842000D01*
X216369896Y-105947412D01*
X215870702Y-106154185D01*
X215421440Y-106454373D01*
X215039373Y-106836440D01*
X214739185Y-107285702D01*
X214532412Y-107784896D01*
X214427000Y-108314838D01*
X210046525Y-108314838D01*
X210016912Y-108251015D01*
X210084968Y-108168089D01*
X210191103Y-107969523D01*
X210256461Y-107754067D01*
X210278530Y-107530000D01*
X210278530Y-105830000D01*
X210256461Y-105605933D01*
X210191103Y-105390477D01*
X210084968Y-105191911D01*
X209942133Y-105017867D01*
X209768089Y-104875032D01*
X209569523Y-104768897D01*
X209354067Y-104703539D01*
X209130000Y-104681470D01*
X207430000Y-104681470D01*
X207205933Y-104703539D01*
X206990477Y-104768897D01*
X206791911Y-104875032D01*
X206759051Y-104902000D01*
X188744831Y-104902000D01*
X188526752Y-104811669D01*
X188342406Y-104775000D01*
X188526752Y-104738331D01*
X188744831Y-104648000D01*
X189142673Y-104648000D01*
X189230000Y-104656601D01*
X189317327Y-104648000D01*
X189317338Y-104648000D01*
X189578549Y-104622273D01*
X189913703Y-104520605D01*
X190222583Y-104355505D01*
X190493318Y-104133318D01*
X190548993Y-104065478D01*
X191236471Y-103378000D01*
X192915001Y-103378000D01*
X193070477Y-103461103D01*
X193285933Y-103526461D01*
X193510000Y-103548530D01*
X195110000Y-103548530D01*
X195334067Y-103526461D01*
X195549523Y-103461103D01*
X195704999Y-103378000D01*
X199875169Y-103378000D01*
X200093248Y-103468331D01*
X200468631Y-103543000D01*
X200851369Y-103543000D01*
X201226752Y-103468331D01*
X201580355Y-103321864D01*
X201898590Y-103109226D01*
X202169226Y-102838590D01*
X202381864Y-102520355D01*
X202528331Y-102166752D01*
X202603000Y-101791369D01*
X202603000Y-101408631D01*
X202528331Y-101033248D01*
X202381864Y-100679645D01*
X202169226Y-100361410D01*
X201898590Y-100090774D01*
X201580355Y-99878136D01*
X201226752Y-99731669D01*
X200851369Y-99657000D01*
X200468631Y-99657000D01*
X200093248Y-99731669D01*
X199875169Y-99822000D01*
X195704999Y-99822000D01*
X195549523Y-99738897D01*
X195334067Y-99673539D01*
X195110000Y-99651470D01*
X193510000Y-99651470D01*
X193285933Y-99673539D01*
X193070477Y-99738897D01*
X192915001Y-99822000D01*
X190587327Y-99822000D01*
X190499999Y-99813399D01*
X190412672Y-99822000D01*
X190412662Y-99822000D01*
X190151451Y-99847727D01*
X189816297Y-99949395D01*
X189738000Y-99991246D01*
X189738000Y-97905480D01*
X193273927Y-97905480D01*
X193322001Y-98283962D01*
X193669509Y-98444354D01*
X194041632Y-98533869D01*
X194424068Y-98549066D01*
X194802120Y-98489362D01*
X195161260Y-98357050D01*
X195297999Y-98283962D01*
X195346073Y-97905480D01*
X194310000Y-96869408D01*
X193273927Y-97905480D01*
X189738000Y-97905480D01*
X189738000Y-96714068D01*
X192360934Y-96714068D01*
X192420638Y-97092120D01*
X192552950Y-97451260D01*
X192626038Y-97587999D01*
X193004520Y-97636073D01*
X194040592Y-96600000D01*
X194579408Y-96600000D01*
X195615480Y-97636073D01*
X195993962Y-97587999D01*
X196154354Y-97240491D01*
X196243869Y-96868368D01*
X196259066Y-96485932D01*
X196199362Y-96107880D01*
X196067050Y-95748740D01*
X195993962Y-95612001D01*
X195615480Y-95563927D01*
X194579408Y-96600000D01*
X194040592Y-96600000D01*
X193004520Y-95563927D01*
X192626038Y-95612001D01*
X192465646Y-95959509D01*
X192376131Y-96331632D01*
X192360934Y-96714068D01*
X189738000Y-96714068D01*
X189738000Y-95294520D01*
X193273927Y-95294520D01*
X194310000Y-96330592D01*
X195346073Y-95294520D01*
X195344925Y-95285480D01*
X199623927Y-95285480D01*
X199672001Y-95663962D01*
X200019509Y-95824354D01*
X200391632Y-95913869D01*
X200774068Y-95929066D01*
X201152120Y-95869362D01*
X201511260Y-95737050D01*
X201647999Y-95663962D01*
X201696073Y-95285480D01*
X200660000Y-94249408D01*
X199623927Y-95285480D01*
X195344925Y-95285480D01*
X195297999Y-94916038D01*
X194950491Y-94755646D01*
X194578368Y-94666131D01*
X194195932Y-94650934D01*
X193817880Y-94710638D01*
X193458740Y-94842950D01*
X193322001Y-94916038D01*
X193273927Y-95294520D01*
X189738000Y-95294520D01*
X189738000Y-94094068D01*
X198710934Y-94094068D01*
X198770638Y-94472120D01*
X198902950Y-94831260D01*
X198976038Y-94967999D01*
X199354520Y-95016073D01*
X200390592Y-93980000D01*
X200929408Y-93980000D01*
X201965480Y-95016073D01*
X202343962Y-94967999D01*
X202504354Y-94620491D01*
X202593869Y-94248368D01*
X202609066Y-93865932D01*
X202549362Y-93487880D01*
X202417050Y-93128740D01*
X202343962Y-92992001D01*
X201965480Y-92943927D01*
X200929408Y-93980000D01*
X200390592Y-93980000D01*
X199354520Y-92943927D01*
X198976038Y-92992001D01*
X198815646Y-93339509D01*
X198726131Y-93711632D01*
X198710934Y-94094068D01*
X189738000Y-94094068D01*
X189738000Y-94067327D01*
X189746601Y-93980000D01*
X189738000Y-93892672D01*
X189738000Y-93892662D01*
X189712273Y-93631451D01*
X189610605Y-93296297D01*
X189445505Y-92987417D01*
X189322385Y-92837395D01*
X189278993Y-92784521D01*
X189278988Y-92784516D01*
X189223318Y-92716682D01*
X189160929Y-92665480D01*
X193273927Y-92665480D01*
X193322001Y-93043962D01*
X193669509Y-93204354D01*
X194041632Y-93293869D01*
X194424068Y-93309066D01*
X194802120Y-93249362D01*
X195161260Y-93117050D01*
X195297999Y-93043962D01*
X195344924Y-92674520D01*
X199623927Y-92674520D01*
X200660000Y-93710592D01*
X201696073Y-92674520D01*
X201647999Y-92296038D01*
X201300491Y-92135646D01*
X200928368Y-92046131D01*
X200545932Y-92030934D01*
X200167880Y-92090638D01*
X199808740Y-92222950D01*
X199672001Y-92296038D01*
X199623927Y-92674520D01*
X195344924Y-92674520D01*
X195346073Y-92665480D01*
X194310000Y-91629408D01*
X193273927Y-92665480D01*
X189160929Y-92665480D01*
X189155484Y-92661012D01*
X187968540Y-91474068D01*
X192360934Y-91474068D01*
X192420638Y-91852120D01*
X192552950Y-92211260D01*
X192626038Y-92347999D01*
X193004520Y-92396073D01*
X194040592Y-91360000D01*
X194579408Y-91360000D01*
X195615480Y-92396073D01*
X195993962Y-92347999D01*
X196154354Y-92000491D01*
X196243869Y-91628368D01*
X196259066Y-91245932D01*
X196199362Y-90867880D01*
X196067050Y-90508740D01*
X195993962Y-90372001D01*
X195615480Y-90323927D01*
X194579408Y-91360000D01*
X194040592Y-91360000D01*
X193004520Y-90323927D01*
X192626038Y-90372001D01*
X192465646Y-90719509D01*
X192376131Y-91091632D01*
X192360934Y-91474068D01*
X187968540Y-91474068D01*
X186548992Y-90054520D01*
X193273927Y-90054520D01*
X194310000Y-91090592D01*
X195346073Y-90054520D01*
X195297999Y-89676038D01*
X194950491Y-89515646D01*
X194578368Y-89426131D01*
X194195932Y-89410934D01*
X193817880Y-89470638D01*
X193458740Y-89602950D01*
X193322001Y-89676038D01*
X193273927Y-90054520D01*
X186548992Y-90054520D01*
X185892973Y-89398501D01*
X206350351Y-89398501D01*
X206398599Y-89557569D01*
X206563035Y-89911977D01*
X206793453Y-90227495D01*
X207080998Y-90491999D01*
X207414620Y-90695323D01*
X207781498Y-90829654D01*
X208089500Y-90598130D01*
X208089500Y-89090500D01*
X208470500Y-89090500D01*
X208470500Y-90598130D01*
X208778502Y-90829654D01*
X209145380Y-90695323D01*
X209479002Y-90491999D01*
X209766547Y-90227495D01*
X209996965Y-89911977D01*
X210161401Y-89557569D01*
X210209649Y-89398501D01*
X209976588Y-89090500D01*
X208470500Y-89090500D01*
X208089500Y-89090500D01*
X206583412Y-89090500D01*
X206350351Y-89398501D01*
X185892973Y-89398501D01*
X184658000Y-88163529D01*
X184658000Y-87096141D01*
X185009211Y-87202680D01*
X185420000Y-87243139D01*
X185830790Y-87202680D01*
X186225793Y-87082857D01*
X186307951Y-87038943D01*
X186309395Y-87043703D01*
X186474495Y-87352583D01*
X186696682Y-87623318D01*
X186967417Y-87845505D01*
X187276297Y-88010605D01*
X187611451Y-88112273D01*
X187872662Y-88138000D01*
X187960000Y-88146602D01*
X188047338Y-88138000D01*
X192915001Y-88138000D01*
X193070477Y-88221103D01*
X193285933Y-88286461D01*
X193510000Y-88308530D01*
X195110000Y-88308530D01*
X195334067Y-88286461D01*
X195549523Y-88221103D01*
X195704999Y-88138000D01*
X206447052Y-88138000D01*
X206398599Y-88242431D01*
X206350351Y-88401499D01*
X206583412Y-88709500D01*
X208089500Y-88709500D01*
X208089500Y-88689500D01*
X208470500Y-88689500D01*
X208470500Y-88709500D01*
X209976588Y-88709500D01*
X210209649Y-88401499D01*
X210161401Y-88242431D01*
X210016912Y-87931015D01*
X210084968Y-87848089D01*
X210191103Y-87649523D01*
X210256461Y-87434067D01*
X210278530Y-87210000D01*
X210278530Y-85510000D01*
X210256461Y-85285933D01*
X210191103Y-85070477D01*
X210084968Y-84871911D01*
X209942133Y-84697867D01*
X209768089Y-84555032D01*
X209569523Y-84448897D01*
X209354067Y-84383539D01*
X209130000Y-84361470D01*
X207430000Y-84361470D01*
X207205933Y-84383539D01*
X206990477Y-84448897D01*
X206791911Y-84555032D01*
X206759051Y-84582000D01*
X195704999Y-84582000D01*
X195549523Y-84498897D01*
X195334067Y-84433539D01*
X195110000Y-84411470D01*
X193510000Y-84411470D01*
X193285933Y-84433539D01*
X193070477Y-84498897D01*
X192915001Y-84582000D01*
X190010101Y-84582000D01*
X189905357Y-84236707D01*
X189710775Y-83872670D01*
X189448912Y-83553588D01*
X189129830Y-83291725D01*
X188765792Y-83097143D01*
X188370789Y-82977320D01*
X187960000Y-82936861D01*
X187549210Y-82977320D01*
X187198000Y-83083859D01*
X187198000Y-82637338D01*
X187206602Y-82550000D01*
X187172273Y-82201451D01*
X187070605Y-81866297D01*
X186952233Y-81644838D01*
X214427000Y-81644838D01*
X214427000Y-82185162D01*
X214532412Y-82715104D01*
X214739185Y-83214298D01*
X215039373Y-83663560D01*
X215421440Y-84045627D01*
X215870702Y-84345815D01*
X216369896Y-84552588D01*
X216899838Y-84658000D01*
X217440162Y-84658000D01*
X217970104Y-84552588D01*
X218469298Y-84345815D01*
X218918560Y-84045627D01*
X219300627Y-83663560D01*
X219600815Y-83214298D01*
X219807588Y-82715104D01*
X219913000Y-82185162D01*
X219913000Y-81644838D01*
X219807588Y-81114896D01*
X219600815Y-80615702D01*
X219300627Y-80166440D01*
X218918560Y-79784373D01*
X218469298Y-79484185D01*
X217970104Y-79277412D01*
X217440162Y-79172000D01*
X216899838Y-79172000D01*
X216369896Y-79277412D01*
X215870702Y-79484185D01*
X215421440Y-79784373D01*
X215039373Y-80166440D01*
X214739185Y-80615702D01*
X214532412Y-81114896D01*
X214427000Y-81644838D01*
X186952233Y-81644838D01*
X186905505Y-81557417D01*
X186683318Y-81286682D01*
X186412583Y-81064495D01*
X186103703Y-80899395D01*
X185768549Y-80797727D01*
X185507338Y-80772000D01*
X185420000Y-80763398D01*
X185332662Y-80772000D01*
X180427338Y-80772000D01*
X180340000Y-80763398D01*
X180252662Y-80772000D01*
X179991451Y-80797727D01*
X179656297Y-80899395D01*
X179347417Y-81064495D01*
X179076682Y-81286682D01*
X178854495Y-81557417D01*
X178689395Y-81866297D01*
X178587727Y-82201451D01*
X178553398Y-82550000D01*
X178562001Y-82637348D01*
X178562000Y-92202000D01*
X177038000Y-92202000D01*
X177038000Y-87275486D01*
X177176410Y-86941337D01*
X177253000Y-86556293D01*
X177253000Y-86163707D01*
X177176410Y-85778663D01*
X177026173Y-85415961D01*
X176808064Y-85089537D01*
X176530463Y-84811936D01*
X176204039Y-84593827D01*
X175841337Y-84443590D01*
X175456293Y-84367000D01*
X175063707Y-84367000D01*
X174678663Y-84443590D01*
X174315961Y-84593827D01*
X174282557Y-84616147D01*
X174208089Y-84555032D01*
X174009523Y-84448897D01*
X173794067Y-84383539D01*
X173570000Y-84361470D01*
X171870000Y-84361470D01*
X171645933Y-84383539D01*
X171430477Y-84448897D01*
X171231911Y-84555032D01*
X171057867Y-84697867D01*
X170915032Y-84871911D01*
X170808897Y-85070477D01*
X170743539Y-85285933D01*
X170721470Y-85510000D01*
X170721470Y-87210000D01*
X170743539Y-87434067D01*
X170808897Y-87649523D01*
X170915032Y-87848089D01*
X170942000Y-87880950D01*
X170942001Y-94742000D01*
X170267338Y-94742000D01*
X170180000Y-94733398D01*
X170092662Y-94742000D01*
X169831451Y-94767727D01*
X169496297Y-94869395D01*
X169418000Y-94911246D01*
X169418000Y-94575338D01*
X169426602Y-94488000D01*
X169392273Y-94139451D01*
X169290605Y-93804297D01*
X169125505Y-93495417D01*
X169106287Y-93472000D01*
X169125505Y-93448583D01*
X169290605Y-93139703D01*
X169392273Y-92804549D01*
X169418000Y-92543338D01*
X169418000Y-92543337D01*
X169426602Y-92456000D01*
X169418000Y-92368662D01*
X169418000Y-84836337D01*
X169450483Y-84787723D01*
X169604488Y-84415921D01*
X169683000Y-84021218D01*
X169683000Y-83618782D01*
X169604488Y-83224079D01*
X169450483Y-82852277D01*
X169226902Y-82517664D01*
X168942336Y-82233098D01*
X168607723Y-82009517D01*
X168235921Y-81855512D01*
X167841218Y-81777000D01*
X167438782Y-81777000D01*
X167044079Y-81855512D01*
X166878000Y-81924304D01*
X166878000Y-81367338D01*
X166886602Y-81280000D01*
X166852273Y-80931451D01*
X166750605Y-80596297D01*
X166585505Y-80287417D01*
X166363318Y-80016682D01*
X166092583Y-79794495D01*
X165783703Y-79629395D01*
X165448549Y-79527727D01*
X165187338Y-79502000D01*
X165100000Y-79493398D01*
X165012662Y-79502000D01*
X149098000Y-79502000D01*
X149098000Y-78827338D01*
X149106602Y-78740000D01*
X149072273Y-78391451D01*
X148970605Y-78056297D01*
X148805505Y-77747417D01*
X148583318Y-77476682D01*
X148481351Y-77393000D01*
X222327001Y-77393000D01*
X222327000Y-113107000D01*
X46913000Y-113107000D01*
X46913000Y-108314838D01*
X49327000Y-108314838D01*
X49327000Y-108855162D01*
X49432412Y-109385104D01*
X49639185Y-109884298D01*
X49939373Y-110333560D01*
X50321440Y-110715627D01*
X50770702Y-111015815D01*
X51269896Y-111222588D01*
X51799838Y-111328000D01*
X52340162Y-111328000D01*
X52870104Y-111222588D01*
X53369298Y-111015815D01*
X53818560Y-110715627D01*
X54200627Y-110333560D01*
X54500815Y-109884298D01*
X54707588Y-109385104D01*
X54813000Y-108855162D01*
X54813000Y-108314838D01*
X54707588Y-107784896D01*
X54500815Y-107285702D01*
X54200627Y-106836440D01*
X53818560Y-106454373D01*
X53369298Y-106154185D01*
X52870104Y-105947412D01*
X52531201Y-105880000D01*
X137751470Y-105880000D01*
X137751470Y-107480000D01*
X137773539Y-107704067D01*
X137838897Y-107919523D01*
X137945032Y-108118089D01*
X138087867Y-108292133D01*
X138261911Y-108434968D01*
X138460477Y-108541103D01*
X138675933Y-108606461D01*
X138900000Y-108628530D01*
X139134059Y-108628530D01*
X140921007Y-110415478D01*
X140976682Y-110483318D01*
X141044521Y-110538992D01*
X141247416Y-110705505D01*
X141412516Y-110793752D01*
X141556297Y-110870605D01*
X141891451Y-110972273D01*
X142152662Y-110998000D01*
X142152672Y-110998000D01*
X142239999Y-111006601D01*
X142327327Y-110998000D01*
X152885169Y-110998000D01*
X153103248Y-111088331D01*
X153478631Y-111163000D01*
X153861369Y-111163000D01*
X154236752Y-111088331D01*
X154454831Y-110998000D01*
X156695169Y-110998000D01*
X156913248Y-111088331D01*
X157288631Y-111163000D01*
X157671369Y-111163000D01*
X158046752Y-111088331D01*
X158400355Y-110941864D01*
X158718590Y-110729226D01*
X158989226Y-110458590D01*
X159201864Y-110140355D01*
X159348331Y-109786752D01*
X159423000Y-109411369D01*
X159423000Y-109410502D01*
X159642104Y-109410502D01*
X159409963Y-109710643D01*
X159541807Y-110067992D01*
X159740833Y-110392754D01*
X159999393Y-110672447D01*
X160307550Y-110896324D01*
X160653462Y-111055780D01*
X160799358Y-111100032D01*
X161099500Y-110866265D01*
X161099500Y-109410500D01*
X161079500Y-109410500D01*
X161079500Y-109029500D01*
X161099500Y-109029500D01*
X161099500Y-107573735D01*
X160799358Y-107339968D01*
X160653462Y-107384220D01*
X160307550Y-107543676D01*
X159999393Y-107767553D01*
X159740833Y-108047246D01*
X159541807Y-108372008D01*
X159409963Y-108729357D01*
X159642104Y-109029498D01*
X159423000Y-109029498D01*
X159423000Y-109028631D01*
X159348331Y-108653248D01*
X159201864Y-108299645D01*
X158989226Y-107981410D01*
X158718590Y-107710774D01*
X158400355Y-107498136D01*
X158046752Y-107351669D01*
X157671369Y-107277000D01*
X157288631Y-107277000D01*
X156913248Y-107351669D01*
X156695169Y-107442000D01*
X154454831Y-107442000D01*
X154236752Y-107351669D01*
X153861369Y-107277000D01*
X153478631Y-107277000D01*
X153103248Y-107351669D01*
X152885169Y-107442000D01*
X146488272Y-107442000D01*
X146544354Y-107320491D01*
X146633869Y-106948368D01*
X146649066Y-106565932D01*
X146589362Y-106187880D01*
X146457050Y-105828740D01*
X146383962Y-105692001D01*
X146005480Y-105643927D01*
X144969408Y-106680000D01*
X144983550Y-106694142D01*
X144714142Y-106963550D01*
X144700000Y-106949408D01*
X144685858Y-106963550D01*
X144416450Y-106694142D01*
X144430592Y-106680000D01*
X143394520Y-105643927D01*
X143016038Y-105692001D01*
X142855646Y-106039509D01*
X142766131Y-106411632D01*
X142750934Y-106794068D01*
X142810638Y-107172120D01*
X142871330Y-107336859D01*
X141648530Y-106114059D01*
X141648530Y-105880000D01*
X141626461Y-105655933D01*
X141561103Y-105440477D01*
X141525849Y-105374520D01*
X143663927Y-105374520D01*
X144700000Y-106410592D01*
X145736073Y-105374520D01*
X145687999Y-104996038D01*
X145340491Y-104835646D01*
X144968368Y-104746131D01*
X144585932Y-104730934D01*
X144207880Y-104790638D01*
X143848740Y-104922950D01*
X143712001Y-104996038D01*
X143663927Y-105374520D01*
X141525849Y-105374520D01*
X141454968Y-105241911D01*
X141312133Y-105067867D01*
X141138089Y-104925032D01*
X140939523Y-104818897D01*
X140724067Y-104753539D01*
X140500000Y-104731470D01*
X138900000Y-104731470D01*
X138675933Y-104753539D01*
X138460477Y-104818897D01*
X138261911Y-104925032D01*
X138087867Y-105067867D01*
X137945032Y-105241911D01*
X137838897Y-105440477D01*
X137773539Y-105655933D01*
X137751470Y-105880000D01*
X52531201Y-105880000D01*
X52340162Y-105842000D01*
X51799838Y-105842000D01*
X51269896Y-105947412D01*
X50770702Y-106154185D01*
X50321440Y-106454373D01*
X49939373Y-106836440D01*
X49639185Y-107285702D01*
X49432412Y-107784896D01*
X49327000Y-108314838D01*
X46913000Y-108314838D01*
X46913000Y-103720000D01*
X113571470Y-103720000D01*
X113593539Y-103944067D01*
X113658897Y-104159523D01*
X113765032Y-104358089D01*
X113907867Y-104532133D01*
X114081911Y-104674968D01*
X114280477Y-104781103D01*
X114495933Y-104846461D01*
X114720000Y-104868530D01*
X115093750Y-104863000D01*
X115379500Y-104577250D01*
X115379500Y-103060500D01*
X115760500Y-103060500D01*
X115760500Y-104577250D01*
X116046250Y-104863000D01*
X116420000Y-104868530D01*
X116644067Y-104846461D01*
X116859523Y-104781103D01*
X117058089Y-104674968D01*
X117232133Y-104532133D01*
X117374968Y-104358089D01*
X117481103Y-104159523D01*
X117546461Y-103944067D01*
X117568530Y-103720000D01*
X121191470Y-103720000D01*
X121213539Y-103944067D01*
X121278897Y-104159523D01*
X121385032Y-104358089D01*
X121527867Y-104532133D01*
X121701911Y-104674968D01*
X121900477Y-104781103D01*
X122115933Y-104846461D01*
X122340000Y-104868530D01*
X122713750Y-104863000D01*
X122999500Y-104577250D01*
X122999500Y-103060500D01*
X123380500Y-103060500D01*
X123380500Y-104577250D01*
X123666250Y-104863000D01*
X124040000Y-104868530D01*
X124264067Y-104846461D01*
X124479523Y-104781103D01*
X124678089Y-104674968D01*
X124852133Y-104532133D01*
X124994968Y-104358089D01*
X125101103Y-104159523D01*
X125166461Y-103944067D01*
X125188530Y-103720000D01*
X125183000Y-103346250D01*
X124897250Y-103060500D01*
X123380500Y-103060500D01*
X122999500Y-103060500D01*
X121482750Y-103060500D01*
X121197000Y-103346250D01*
X121191470Y-103720000D01*
X117568530Y-103720000D01*
X117563000Y-103346250D01*
X117277250Y-103060500D01*
X115760500Y-103060500D01*
X115379500Y-103060500D01*
X113862750Y-103060500D01*
X113577000Y-103346250D01*
X113571470Y-103720000D01*
X46913000Y-103720000D01*
X46913000Y-81644838D01*
X49327000Y-81644838D01*
X49327000Y-82185162D01*
X49432412Y-82715104D01*
X49639185Y-83214298D01*
X49939373Y-83663560D01*
X50321440Y-84045627D01*
X50770702Y-84345815D01*
X51269896Y-84552588D01*
X51799838Y-84658000D01*
X52340162Y-84658000D01*
X52870104Y-84552588D01*
X53369298Y-84345815D01*
X53818560Y-84045627D01*
X54200627Y-83663560D01*
X54500815Y-83214298D01*
X54707588Y-82715104D01*
X54813000Y-82185162D01*
X54813000Y-81644838D01*
X54707588Y-81114896D01*
X54500815Y-80615702D01*
X54200627Y-80166440D01*
X53818560Y-79784373D01*
X53369298Y-79484185D01*
X52870104Y-79277412D01*
X52340162Y-79172000D01*
X51799838Y-79172000D01*
X51269896Y-79277412D01*
X50770702Y-79484185D01*
X50321440Y-79784373D01*
X49939373Y-80166440D01*
X49639185Y-80615702D01*
X49432412Y-81114896D01*
X49327000Y-81644838D01*
X46913000Y-81644838D01*
X46913000Y-77393000D01*
X66148648Y-77393000D01*
X66114521Y-77421007D01*
%TA.AperFunction,Conductor*%
D25*
G36*
X66114521Y-77421007D02*
G01*
X66114516Y-77421012D01*
X66046682Y-77476682D01*
X65991012Y-77544516D01*
X57683529Y-85852000D01*
X56795486Y-85852000D01*
X56461337Y-85713590D01*
X56076293Y-85637000D01*
X55683707Y-85637000D01*
X55298663Y-85713590D01*
X54964514Y-85852000D01*
X53427338Y-85852000D01*
X53340000Y-85843398D01*
X53252662Y-85852000D01*
X52991451Y-85877727D01*
X52656297Y-85979395D01*
X52347417Y-86144495D01*
X52076682Y-86366682D01*
X51854495Y-86637417D01*
X51689395Y-86946297D01*
X51587727Y-87281451D01*
X51553398Y-87630000D01*
X51562001Y-87717348D01*
X51562000Y-100242662D01*
X51553398Y-100330000D01*
X51587727Y-100678549D01*
X51689395Y-101013703D01*
X51854495Y-101322583D01*
X51925113Y-101408631D01*
X52076682Y-101593318D01*
X52347417Y-101815505D01*
X52656297Y-101980605D01*
X52991451Y-102082273D01*
X53340000Y-102116602D01*
X53427338Y-102108000D01*
X54359051Y-102108000D01*
X54391911Y-102134968D01*
X54590477Y-102241103D01*
X54805933Y-102306461D01*
X55030000Y-102328530D01*
X56730000Y-102328530D01*
X56954067Y-102306461D01*
X57169523Y-102241103D01*
X57368089Y-102134968D01*
X57400949Y-102108000D01*
X59602673Y-102108000D01*
X59690000Y-102116601D01*
X59777327Y-102108000D01*
X59777338Y-102108000D01*
X60038549Y-102082273D01*
X60373703Y-101980605D01*
X60682583Y-101815505D01*
X60953318Y-101593318D01*
X61008993Y-101525478D01*
X65506472Y-97028000D01*
X65789051Y-97028000D01*
X65821911Y-97054968D01*
X66020477Y-97161103D01*
X66235933Y-97226461D01*
X66460000Y-97248530D01*
X68160000Y-97248530D01*
X68384067Y-97226461D01*
X68599523Y-97161103D01*
X68798089Y-97054968D01*
X68830949Y-97028000D01*
X76962001Y-97028000D01*
X76962000Y-98043662D01*
X76929517Y-98092277D01*
X76775512Y-98464079D01*
X76697000Y-98858782D01*
X76697000Y-99261218D01*
X76775512Y-99655921D01*
X76924007Y-100014420D01*
X76885032Y-100061911D01*
X76778897Y-100260477D01*
X76713539Y-100475933D01*
X76691470Y-100700000D01*
X76691470Y-102500000D01*
X76713539Y-102724067D01*
X76778897Y-102939523D01*
X76885032Y-103138089D01*
X77027867Y-103312133D01*
X77201911Y-103454968D01*
X77400477Y-103561103D01*
X77615933Y-103626461D01*
X77840000Y-103648530D01*
X79640000Y-103648530D01*
X79864067Y-103626461D01*
X80079523Y-103561103D01*
X80278089Y-103454968D01*
X80452133Y-103312133D01*
X80594968Y-103138089D01*
X80701103Y-102939523D01*
X80766461Y-102724067D01*
X80788530Y-102500000D01*
X80788530Y-100700000D01*
X80766461Y-100475933D01*
X80701103Y-100260477D01*
X80594968Y-100061911D01*
X80555993Y-100014420D01*
X80704488Y-99655921D01*
X80783000Y-99261218D01*
X80783000Y-98858782D01*
X80704488Y-98464079D01*
X80550483Y-98092277D01*
X80518000Y-98043663D01*
X80518000Y-97028000D01*
X84582001Y-97028000D01*
X84582000Y-98043662D01*
X84549517Y-98092277D01*
X84395512Y-98464079D01*
X84317000Y-98858782D01*
X84317000Y-99261218D01*
X84395512Y-99655921D01*
X84544007Y-100014420D01*
X84505032Y-100061911D01*
X84398897Y-100260477D01*
X84333539Y-100475933D01*
X84311470Y-100700000D01*
X84311470Y-102500000D01*
X84333539Y-102724067D01*
X84398897Y-102939523D01*
X84505032Y-103138089D01*
X84647867Y-103312133D01*
X84821911Y-103454968D01*
X85020477Y-103561103D01*
X85235933Y-103626461D01*
X85460000Y-103648530D01*
X87260000Y-103648530D01*
X87484067Y-103626461D01*
X87699523Y-103561103D01*
X87898089Y-103454968D01*
X88072133Y-103312133D01*
X88214968Y-103138089D01*
X88321103Y-102939523D01*
X88386461Y-102724067D01*
X88408530Y-102500000D01*
X88408530Y-100700000D01*
X88386461Y-100475933D01*
X88321103Y-100260477D01*
X88214968Y-100061911D01*
X88175993Y-100014420D01*
X88324488Y-99655921D01*
X88403000Y-99261218D01*
X88403000Y-98858782D01*
X88324488Y-98464079D01*
X88170483Y-98092277D01*
X88138000Y-98043663D01*
X88138000Y-97028000D01*
X92202001Y-97028000D01*
X92202000Y-98043662D01*
X92169517Y-98092277D01*
X92015512Y-98464079D01*
X91937000Y-98858782D01*
X91937000Y-99261218D01*
X92015512Y-99655921D01*
X92164007Y-100014420D01*
X92125032Y-100061911D01*
X92018897Y-100260477D01*
X91953539Y-100475933D01*
X91931470Y-100700000D01*
X91931470Y-102500000D01*
X91953539Y-102724067D01*
X92018897Y-102939523D01*
X92125032Y-103138089D01*
X92267867Y-103312133D01*
X92441911Y-103454968D01*
X92640477Y-103561103D01*
X92855933Y-103626461D01*
X93080000Y-103648530D01*
X94880000Y-103648530D01*
X95104067Y-103626461D01*
X95319523Y-103561103D01*
X95518089Y-103454968D01*
X95692133Y-103312133D01*
X95834968Y-103138089D01*
X95941103Y-102939523D01*
X96006461Y-102724067D01*
X96028530Y-102500000D01*
X96028530Y-100700000D01*
X96006461Y-100475933D01*
X95941103Y-100260477D01*
X95834968Y-100061911D01*
X95795993Y-100014420D01*
X95944488Y-99655921D01*
X96023000Y-99261218D01*
X96023000Y-98858782D01*
X95944488Y-98464079D01*
X95790483Y-98092277D01*
X95758000Y-98043663D01*
X95758000Y-97028000D01*
X99822001Y-97028000D01*
X99822000Y-98043662D01*
X99789517Y-98092277D01*
X99635512Y-98464079D01*
X99557000Y-98858782D01*
X99557000Y-99261218D01*
X99635512Y-99655921D01*
X99784007Y-100014420D01*
X99745032Y-100061911D01*
X99638897Y-100260477D01*
X99573539Y-100475933D01*
X99551470Y-100700000D01*
X99551470Y-102500000D01*
X99573539Y-102724067D01*
X99638897Y-102939523D01*
X99745032Y-103138089D01*
X99887867Y-103312133D01*
X100061911Y-103454968D01*
X100260477Y-103561103D01*
X100475933Y-103626461D01*
X100700000Y-103648530D01*
X102500000Y-103648530D01*
X102724067Y-103626461D01*
X102939523Y-103561103D01*
X103138089Y-103454968D01*
X103312133Y-103312133D01*
X103454968Y-103138089D01*
X103561103Y-102939523D01*
X103626461Y-102724067D01*
X103648530Y-102500000D01*
X103648530Y-100700000D01*
X103626461Y-100475933D01*
X103561103Y-100260477D01*
X103454968Y-100061911D01*
X103415993Y-100014420D01*
X103564488Y-99655921D01*
X103643000Y-99261218D01*
X103643000Y-98858782D01*
X103564488Y-98464079D01*
X103410483Y-98092277D01*
X103378000Y-98043663D01*
X103378000Y-97028000D01*
X104673529Y-97028000D01*
X109171012Y-101525484D01*
X109226682Y-101593318D01*
X109294516Y-101648988D01*
X109294521Y-101648993D01*
X109497417Y-101815505D01*
X109806297Y-101980605D01*
X110141451Y-102082273D01*
X110402662Y-102108000D01*
X110402672Y-102108000D01*
X110490000Y-102116601D01*
X110577327Y-102108000D01*
X113572772Y-102108000D01*
X113577000Y-102393750D01*
X113862750Y-102679500D01*
X115379500Y-102679500D01*
X115379500Y-102659500D01*
X115760500Y-102659500D01*
X115760500Y-102679500D01*
X117277250Y-102679500D01*
X117563000Y-102393750D01*
X117568530Y-102020000D01*
X117546461Y-101795933D01*
X117481103Y-101580477D01*
X117374968Y-101381911D01*
X117313853Y-101307443D01*
X117336173Y-101274039D01*
X117486410Y-100911337D01*
X117563000Y-100526293D01*
X117563000Y-100133707D01*
X117486410Y-99748663D01*
X117336173Y-99385961D01*
X117118373Y-99060000D01*
X117336173Y-98734039D01*
X117486410Y-98371337D01*
X117563000Y-97986293D01*
X117563000Y-97593707D01*
X117486410Y-97208663D01*
X117336173Y-96845961D01*
X117118064Y-96519537D01*
X116840463Y-96241936D01*
X116514039Y-96023827D01*
X116151337Y-95873590D01*
X115766293Y-95797000D01*
X115373707Y-95797000D01*
X114988663Y-95873590D01*
X114625961Y-96023827D01*
X114299537Y-96241936D01*
X114021936Y-96519537D01*
X113803827Y-96845961D01*
X113653590Y-97208663D01*
X113577000Y-97593707D01*
X113577000Y-97986293D01*
X113653590Y-98371337D01*
X113728424Y-98552000D01*
X111226472Y-98552000D01*
X107162471Y-94488000D01*
X108435169Y-94488000D01*
X108653248Y-94578331D01*
X109028631Y-94653000D01*
X109411369Y-94653000D01*
X109786752Y-94578331D01*
X110004831Y-94488000D01*
X118872001Y-94488000D01*
X118872000Y-100242662D01*
X118863398Y-100330000D01*
X118897727Y-100678549D01*
X118999395Y-101013703D01*
X119164495Y-101322583D01*
X119235113Y-101408631D01*
X119386682Y-101593318D01*
X119657417Y-101815505D01*
X119966297Y-101980605D01*
X120301451Y-102082273D01*
X120650000Y-102116602D01*
X120737338Y-102108000D01*
X121192772Y-102108000D01*
X121197000Y-102393750D01*
X121482750Y-102679500D01*
X122999500Y-102679500D01*
X122999500Y-102659500D01*
X123380500Y-102659500D01*
X123380500Y-102679500D01*
X124897250Y-102679500D01*
X125183000Y-102393750D01*
X125188530Y-102020000D01*
X125166461Y-101795933D01*
X125101103Y-101580477D01*
X124994968Y-101381911D01*
X124933853Y-101307443D01*
X124956173Y-101274039D01*
X125106410Y-100911337D01*
X125183000Y-100526293D01*
X125183000Y-100133707D01*
X125106410Y-99748663D01*
X125031576Y-99568000D01*
X138963529Y-99568000D01*
X140921007Y-101525478D01*
X140976682Y-101593318D01*
X141044521Y-101648992D01*
X141247416Y-101815505D01*
X141412516Y-101903752D01*
X141556297Y-101980605D01*
X141891451Y-102082273D01*
X142152662Y-102108000D01*
X142152672Y-102108000D01*
X142239999Y-102116601D01*
X142327327Y-102108000D01*
X144805529Y-102108000D01*
X148033012Y-105335484D01*
X148088682Y-105403318D01*
X148156516Y-105458988D01*
X148156521Y-105458993D01*
X148343707Y-105612612D01*
X148359417Y-105625505D01*
X148668297Y-105790605D01*
X149003451Y-105892273D01*
X149264662Y-105918000D01*
X149264670Y-105918000D01*
X149352000Y-105926601D01*
X149439330Y-105918000D01*
X160553529Y-105918000D01*
X162099462Y-107463933D01*
X161926538Y-107384220D01*
X161780642Y-107339968D01*
X161480500Y-107573735D01*
X161480500Y-109029500D01*
X161500500Y-109029500D01*
X161500500Y-109410500D01*
X161480500Y-109410500D01*
X161480500Y-110866265D01*
X161780642Y-111100032D01*
X161926538Y-111055780D01*
X162272450Y-110896324D01*
X162580607Y-110672447D01*
X162790424Y-110445480D01*
X164063927Y-110445480D01*
X164112001Y-110823962D01*
X164459509Y-110984354D01*
X164831632Y-111073869D01*
X165214068Y-111089066D01*
X165592120Y-111029362D01*
X165951260Y-110897050D01*
X166087999Y-110823962D01*
X166136073Y-110445480D01*
X165100000Y-109409408D01*
X164063927Y-110445480D01*
X162790424Y-110445480D01*
X162839167Y-110392754D01*
X163038193Y-110067992D01*
X163170037Y-109710643D01*
X162937896Y-109410502D01*
X163175639Y-109410502D01*
X163210638Y-109632120D01*
X163342950Y-109991260D01*
X163416038Y-110127999D01*
X163794520Y-110176073D01*
X164830592Y-109140000D01*
X164816450Y-109125858D01*
X165085858Y-108856450D01*
X165100000Y-108870592D01*
X165114142Y-108856450D01*
X165383550Y-109125858D01*
X165369408Y-109140000D01*
X166405480Y-110176073D01*
X166783962Y-110127999D01*
X166944354Y-109780491D01*
X166959265Y-109718501D01*
X206350351Y-109718501D01*
X206398599Y-109877569D01*
X206563035Y-110231977D01*
X206793453Y-110547495D01*
X207080998Y-110811999D01*
X207414620Y-111015323D01*
X207781498Y-111149654D01*
X208089500Y-110918130D01*
X208089500Y-109410500D01*
X208470500Y-109410500D01*
X208470500Y-110918130D01*
X208778502Y-111149654D01*
X209145380Y-111015323D01*
X209479002Y-110811999D01*
X209766547Y-110547495D01*
X209996965Y-110231977D01*
X210161401Y-109877569D01*
X210209649Y-109718501D01*
X209976588Y-109410500D01*
X208470500Y-109410500D01*
X208089500Y-109410500D01*
X206583412Y-109410500D01*
X206350351Y-109718501D01*
X166959265Y-109718501D01*
X167033869Y-109408368D01*
X167049066Y-109025932D01*
X166989362Y-108647880D01*
X166919408Y-108458000D01*
X170092662Y-108458000D01*
X170180000Y-108466602D01*
X170528549Y-108432273D01*
X170863703Y-108330605D01*
X171172583Y-108165505D01*
X171425996Y-107957534D01*
X171534840Y-108090160D01*
X171788825Y-108298601D01*
X172078596Y-108453487D01*
X172393015Y-108548865D01*
X172720000Y-108581070D01*
X173046984Y-108548865D01*
X173355000Y-108455429D01*
X173663015Y-108548865D01*
X173990000Y-108581070D01*
X174316984Y-108548865D01*
X174401438Y-108523246D01*
X174510933Y-108556461D01*
X174735000Y-108578530D01*
X174783750Y-108573000D01*
X175069500Y-108287250D01*
X175069500Y-108176873D01*
X175175160Y-108090160D01*
X175383601Y-107836175D01*
X175450500Y-107711016D01*
X175450500Y-108287250D01*
X175736250Y-108573000D01*
X175785000Y-108578530D01*
X176009067Y-108556461D01*
X176224523Y-108491103D01*
X176423089Y-108384968D01*
X176597133Y-108242133D01*
X176739968Y-108068089D01*
X176846103Y-107869523D01*
X176911461Y-107654067D01*
X176933530Y-107430000D01*
X176928000Y-107156250D01*
X176642250Y-106870500D01*
X175658000Y-106870500D01*
X175658000Y-106489500D01*
X176642250Y-106489500D01*
X176928000Y-106203750D01*
X176933530Y-105930000D01*
X176913585Y-105727500D01*
X177142437Y-105727500D01*
X178424486Y-107009550D01*
X178471669Y-107246752D01*
X178618136Y-107600355D01*
X178830774Y-107918590D01*
X179101410Y-108189226D01*
X179419645Y-108401864D01*
X179773248Y-108548331D01*
X180148631Y-108623000D01*
X180531369Y-108623000D01*
X180906752Y-108548331D01*
X181260355Y-108401864D01*
X181578590Y-108189226D01*
X181849226Y-107918590D01*
X182061864Y-107600355D01*
X182208331Y-107246752D01*
X182283000Y-106871369D01*
X182283000Y-106488631D01*
X182208331Y-106113248D01*
X182061864Y-105759645D01*
X181849226Y-105441410D01*
X181578590Y-105170774D01*
X181260355Y-104958136D01*
X180906752Y-104811669D01*
X180722406Y-104775000D01*
X180906752Y-104738331D01*
X181260355Y-104591864D01*
X181578590Y-104379226D01*
X181849226Y-104108590D01*
X182061864Y-103790355D01*
X182208331Y-103436752D01*
X182283000Y-103061369D01*
X182283000Y-102678631D01*
X182208331Y-102303248D01*
X182118000Y-102085169D01*
X182118000Y-97914999D01*
X182201103Y-97759523D01*
X182266461Y-97544067D01*
X182288530Y-97320000D01*
X182288530Y-96634068D01*
X183390934Y-96634068D01*
X183450638Y-97012120D01*
X183582950Y-97371260D01*
X183656038Y-97507999D01*
X184034520Y-97556073D01*
X185070592Y-96520000D01*
X184034520Y-95483927D01*
X183656038Y-95532001D01*
X183495646Y-95879509D01*
X183406131Y-96251632D01*
X183390934Y-96634068D01*
X182288530Y-96634068D01*
X182288530Y-95720000D01*
X182266461Y-95495933D01*
X182201103Y-95280477D01*
X182118000Y-95125001D01*
X182118000Y-94067337D01*
X182126602Y-93980000D01*
X182118000Y-93892662D01*
X182118000Y-90652471D01*
X186182001Y-94716473D01*
X186182001Y-94768653D01*
X185980491Y-94675646D01*
X185608368Y-94586131D01*
X185225932Y-94570934D01*
X184847880Y-94630638D01*
X184488740Y-94762950D01*
X184352001Y-94836038D01*
X184303927Y-95214520D01*
X185340000Y-96250592D01*
X185354142Y-96236450D01*
X185623550Y-96505858D01*
X185609408Y-96520000D01*
X185623550Y-96534142D01*
X185354142Y-96803550D01*
X185340000Y-96789408D01*
X184303927Y-97825480D01*
X184352001Y-98203962D01*
X184699509Y-98364354D01*
X185071632Y-98453869D01*
X185454068Y-98469066D01*
X185832120Y-98409362D01*
X186182001Y-98280461D01*
X186182000Y-102085169D01*
X186091669Y-102303248D01*
X186017000Y-102678631D01*
X186017000Y-103061369D01*
X186091669Y-103436752D01*
X186238136Y-103790355D01*
X186450774Y-104108590D01*
X186721410Y-104379226D01*
X187039645Y-104591864D01*
X187393248Y-104738331D01*
X187577594Y-104775000D01*
X187393248Y-104811669D01*
X187039645Y-104958136D01*
X186721410Y-105170774D01*
X186450774Y-105441410D01*
X186238136Y-105759645D01*
X186091669Y-106113248D01*
X186017000Y-106488631D01*
X186017000Y-106871369D01*
X186091669Y-107246752D01*
X186238136Y-107600355D01*
X186450774Y-107918590D01*
X186721410Y-108189226D01*
X187039645Y-108401864D01*
X187393248Y-108548331D01*
X187768631Y-108623000D01*
X188151369Y-108623000D01*
X188526752Y-108548331D01*
X188744831Y-108458000D01*
X206447052Y-108458000D01*
X206398599Y-108562431D01*
X206350351Y-108721499D01*
X206583412Y-109029500D01*
X208089500Y-109029500D01*
X208089500Y-109009500D01*
X208470500Y-109009500D01*
X208470500Y-109029500D01*
X209976588Y-109029500D01*
X210209649Y-108721499D01*
X210161401Y-108562431D01*
X210046525Y-108314838D01*
X214427000Y-108314838D01*
X214427000Y-108855162D01*
X214532412Y-109385104D01*
X214739185Y-109884298D01*
X215039373Y-110333560D01*
X215421440Y-110715627D01*
X215870702Y-111015815D01*
X216369896Y-111222588D01*
X216899838Y-111328000D01*
X217440162Y-111328000D01*
X217970104Y-111222588D01*
X218469298Y-111015815D01*
X218918560Y-110715627D01*
X219300627Y-110333560D01*
X219600815Y-109884298D01*
X219807588Y-109385104D01*
X219913000Y-108855162D01*
X219913000Y-108314838D01*
X219807588Y-107784896D01*
X219600815Y-107285702D01*
X219300627Y-106836440D01*
X218918560Y-106454373D01*
X218469298Y-106154185D01*
X217970104Y-105947412D01*
X217440162Y-105842000D01*
X216899838Y-105842000D01*
X216369896Y-105947412D01*
X215870702Y-106154185D01*
X215421440Y-106454373D01*
X215039373Y-106836440D01*
X214739185Y-107285702D01*
X214532412Y-107784896D01*
X214427000Y-108314838D01*
X210046525Y-108314838D01*
X210016912Y-108251015D01*
X210084968Y-108168089D01*
X210191103Y-107969523D01*
X210256461Y-107754067D01*
X210278530Y-107530000D01*
X210278530Y-105830000D01*
X210256461Y-105605933D01*
X210191103Y-105390477D01*
X210084968Y-105191911D01*
X209942133Y-105017867D01*
X209768089Y-104875032D01*
X209569523Y-104768897D01*
X209354067Y-104703539D01*
X209130000Y-104681470D01*
X207430000Y-104681470D01*
X207205933Y-104703539D01*
X206990477Y-104768897D01*
X206791911Y-104875032D01*
X206759051Y-104902000D01*
X188744831Y-104902000D01*
X188526752Y-104811669D01*
X188342406Y-104775000D01*
X188526752Y-104738331D01*
X188744831Y-104648000D01*
X189142673Y-104648000D01*
X189230000Y-104656601D01*
X189317327Y-104648000D01*
X189317338Y-104648000D01*
X189578549Y-104622273D01*
X189913703Y-104520605D01*
X190222583Y-104355505D01*
X190493318Y-104133318D01*
X190548993Y-104065478D01*
X191236471Y-103378000D01*
X192915001Y-103378000D01*
X193070477Y-103461103D01*
X193285933Y-103526461D01*
X193510000Y-103548530D01*
X195110000Y-103548530D01*
X195334067Y-103526461D01*
X195549523Y-103461103D01*
X195704999Y-103378000D01*
X199875169Y-103378000D01*
X200093248Y-103468331D01*
X200468631Y-103543000D01*
X200851369Y-103543000D01*
X201226752Y-103468331D01*
X201580355Y-103321864D01*
X201898590Y-103109226D01*
X202169226Y-102838590D01*
X202381864Y-102520355D01*
X202528331Y-102166752D01*
X202603000Y-101791369D01*
X202603000Y-101408631D01*
X202528331Y-101033248D01*
X202381864Y-100679645D01*
X202169226Y-100361410D01*
X201898590Y-100090774D01*
X201580355Y-99878136D01*
X201226752Y-99731669D01*
X200851369Y-99657000D01*
X200468631Y-99657000D01*
X200093248Y-99731669D01*
X199875169Y-99822000D01*
X195704999Y-99822000D01*
X195549523Y-99738897D01*
X195334067Y-99673539D01*
X195110000Y-99651470D01*
X193510000Y-99651470D01*
X193285933Y-99673539D01*
X193070477Y-99738897D01*
X192915001Y-99822000D01*
X190587327Y-99822000D01*
X190499999Y-99813399D01*
X190412672Y-99822000D01*
X190412662Y-99822000D01*
X190151451Y-99847727D01*
X189816297Y-99949395D01*
X189738000Y-99991246D01*
X189738000Y-97905480D01*
X193273927Y-97905480D01*
X193322001Y-98283962D01*
X193669509Y-98444354D01*
X194041632Y-98533869D01*
X194424068Y-98549066D01*
X194802120Y-98489362D01*
X195161260Y-98357050D01*
X195297999Y-98283962D01*
X195346073Y-97905480D01*
X194310000Y-96869408D01*
X193273927Y-97905480D01*
X189738000Y-97905480D01*
X189738000Y-96714068D01*
X192360934Y-96714068D01*
X192420638Y-97092120D01*
X192552950Y-97451260D01*
X192626038Y-97587999D01*
X193004520Y-97636073D01*
X194040592Y-96600000D01*
X194579408Y-96600000D01*
X195615480Y-97636073D01*
X195993962Y-97587999D01*
X196154354Y-97240491D01*
X196243869Y-96868368D01*
X196259066Y-96485932D01*
X196199362Y-96107880D01*
X196067050Y-95748740D01*
X195993962Y-95612001D01*
X195615480Y-95563927D01*
X194579408Y-96600000D01*
X194040592Y-96600000D01*
X193004520Y-95563927D01*
X192626038Y-95612001D01*
X192465646Y-95959509D01*
X192376131Y-96331632D01*
X192360934Y-96714068D01*
X189738000Y-96714068D01*
X189738000Y-95294520D01*
X193273927Y-95294520D01*
X194310000Y-96330592D01*
X195346073Y-95294520D01*
X195344925Y-95285480D01*
X199623927Y-95285480D01*
X199672001Y-95663962D01*
X200019509Y-95824354D01*
X200391632Y-95913869D01*
X200774068Y-95929066D01*
X201152120Y-95869362D01*
X201511260Y-95737050D01*
X201647999Y-95663962D01*
X201696073Y-95285480D01*
X200660000Y-94249408D01*
X199623927Y-95285480D01*
X195344925Y-95285480D01*
X195297999Y-94916038D01*
X194950491Y-94755646D01*
X194578368Y-94666131D01*
X194195932Y-94650934D01*
X193817880Y-94710638D01*
X193458740Y-94842950D01*
X193322001Y-94916038D01*
X193273927Y-95294520D01*
X189738000Y-95294520D01*
X189738000Y-94094068D01*
X198710934Y-94094068D01*
X198770638Y-94472120D01*
X198902950Y-94831260D01*
X198976038Y-94967999D01*
X199354520Y-95016073D01*
X200390592Y-93980000D01*
X200929408Y-93980000D01*
X201965480Y-95016073D01*
X202343962Y-94967999D01*
X202504354Y-94620491D01*
X202593869Y-94248368D01*
X202609066Y-93865932D01*
X202549362Y-93487880D01*
X202417050Y-93128740D01*
X202343962Y-92992001D01*
X201965480Y-92943927D01*
X200929408Y-93980000D01*
X200390592Y-93980000D01*
X199354520Y-92943927D01*
X198976038Y-92992001D01*
X198815646Y-93339509D01*
X198726131Y-93711632D01*
X198710934Y-94094068D01*
X189738000Y-94094068D01*
X189738000Y-94067327D01*
X189746601Y-93980000D01*
X189738000Y-93892672D01*
X189738000Y-93892662D01*
X189712273Y-93631451D01*
X189610605Y-93296297D01*
X189445505Y-92987417D01*
X189322385Y-92837395D01*
X189278993Y-92784521D01*
X189278988Y-92784516D01*
X189223318Y-92716682D01*
X189160929Y-92665480D01*
X193273927Y-92665480D01*
X193322001Y-93043962D01*
X193669509Y-93204354D01*
X194041632Y-93293869D01*
X194424068Y-93309066D01*
X194802120Y-93249362D01*
X195161260Y-93117050D01*
X195297999Y-93043962D01*
X195344924Y-92674520D01*
X199623927Y-92674520D01*
X200660000Y-93710592D01*
X201696073Y-92674520D01*
X201647999Y-92296038D01*
X201300491Y-92135646D01*
X200928368Y-92046131D01*
X200545932Y-92030934D01*
X200167880Y-92090638D01*
X199808740Y-92222950D01*
X199672001Y-92296038D01*
X199623927Y-92674520D01*
X195344924Y-92674520D01*
X195346073Y-92665480D01*
X194310000Y-91629408D01*
X193273927Y-92665480D01*
X189160929Y-92665480D01*
X189155484Y-92661012D01*
X187968540Y-91474068D01*
X192360934Y-91474068D01*
X192420638Y-91852120D01*
X192552950Y-92211260D01*
X192626038Y-92347999D01*
X193004520Y-92396073D01*
X194040592Y-91360000D01*
X194579408Y-91360000D01*
X195615480Y-92396073D01*
X195993962Y-92347999D01*
X196154354Y-92000491D01*
X196243869Y-91628368D01*
X196259066Y-91245932D01*
X196199362Y-90867880D01*
X196067050Y-90508740D01*
X195993962Y-90372001D01*
X195615480Y-90323927D01*
X194579408Y-91360000D01*
X194040592Y-91360000D01*
X193004520Y-90323927D01*
X192626038Y-90372001D01*
X192465646Y-90719509D01*
X192376131Y-91091632D01*
X192360934Y-91474068D01*
X187968540Y-91474068D01*
X186548992Y-90054520D01*
X193273927Y-90054520D01*
X194310000Y-91090592D01*
X195346073Y-90054520D01*
X195297999Y-89676038D01*
X194950491Y-89515646D01*
X194578368Y-89426131D01*
X194195932Y-89410934D01*
X193817880Y-89470638D01*
X193458740Y-89602950D01*
X193322001Y-89676038D01*
X193273927Y-90054520D01*
X186548992Y-90054520D01*
X185892973Y-89398501D01*
X206350351Y-89398501D01*
X206398599Y-89557569D01*
X206563035Y-89911977D01*
X206793453Y-90227495D01*
X207080998Y-90491999D01*
X207414620Y-90695323D01*
X207781498Y-90829654D01*
X208089500Y-90598130D01*
X208089500Y-89090500D01*
X208470500Y-89090500D01*
X208470500Y-90598130D01*
X208778502Y-90829654D01*
X209145380Y-90695323D01*
X209479002Y-90491999D01*
X209766547Y-90227495D01*
X209996965Y-89911977D01*
X210161401Y-89557569D01*
X210209649Y-89398501D01*
X209976588Y-89090500D01*
X208470500Y-89090500D01*
X208089500Y-89090500D01*
X206583412Y-89090500D01*
X206350351Y-89398501D01*
X185892973Y-89398501D01*
X184658000Y-88163529D01*
X184658000Y-87096141D01*
X185009211Y-87202680D01*
X185420000Y-87243139D01*
X185830790Y-87202680D01*
X186225793Y-87082857D01*
X186307951Y-87038943D01*
X186309395Y-87043703D01*
X186474495Y-87352583D01*
X186696682Y-87623318D01*
X186967417Y-87845505D01*
X187276297Y-88010605D01*
X187611451Y-88112273D01*
X187872662Y-88138000D01*
X187960000Y-88146602D01*
X188047338Y-88138000D01*
X192915001Y-88138000D01*
X193070477Y-88221103D01*
X193285933Y-88286461D01*
X193510000Y-88308530D01*
X195110000Y-88308530D01*
X195334067Y-88286461D01*
X195549523Y-88221103D01*
X195704999Y-88138000D01*
X206447052Y-88138000D01*
X206398599Y-88242431D01*
X206350351Y-88401499D01*
X206583412Y-88709500D01*
X208089500Y-88709500D01*
X208089500Y-88689500D01*
X208470500Y-88689500D01*
X208470500Y-88709500D01*
X209976588Y-88709500D01*
X210209649Y-88401499D01*
X210161401Y-88242431D01*
X210016912Y-87931015D01*
X210084968Y-87848089D01*
X210191103Y-87649523D01*
X210256461Y-87434067D01*
X210278530Y-87210000D01*
X210278530Y-85510000D01*
X210256461Y-85285933D01*
X210191103Y-85070477D01*
X210084968Y-84871911D01*
X209942133Y-84697867D01*
X209768089Y-84555032D01*
X209569523Y-84448897D01*
X209354067Y-84383539D01*
X209130000Y-84361470D01*
X207430000Y-84361470D01*
X207205933Y-84383539D01*
X206990477Y-84448897D01*
X206791911Y-84555032D01*
X206759051Y-84582000D01*
X195704999Y-84582000D01*
X195549523Y-84498897D01*
X195334067Y-84433539D01*
X195110000Y-84411470D01*
X193510000Y-84411470D01*
X193285933Y-84433539D01*
X193070477Y-84498897D01*
X192915001Y-84582000D01*
X190010101Y-84582000D01*
X189905357Y-84236707D01*
X189710775Y-83872670D01*
X189448912Y-83553588D01*
X189129830Y-83291725D01*
X188765792Y-83097143D01*
X188370789Y-82977320D01*
X187960000Y-82936861D01*
X187549210Y-82977320D01*
X187198000Y-83083859D01*
X187198000Y-82637338D01*
X187206602Y-82550000D01*
X187172273Y-82201451D01*
X187070605Y-81866297D01*
X186952233Y-81644838D01*
X214427000Y-81644838D01*
X214427000Y-82185162D01*
X214532412Y-82715104D01*
X214739185Y-83214298D01*
X215039373Y-83663560D01*
X215421440Y-84045627D01*
X215870702Y-84345815D01*
X216369896Y-84552588D01*
X216899838Y-84658000D01*
X217440162Y-84658000D01*
X217970104Y-84552588D01*
X218469298Y-84345815D01*
X218918560Y-84045627D01*
X219300627Y-83663560D01*
X219600815Y-83214298D01*
X219807588Y-82715104D01*
X219913000Y-82185162D01*
X219913000Y-81644838D01*
X219807588Y-81114896D01*
X219600815Y-80615702D01*
X219300627Y-80166440D01*
X218918560Y-79784373D01*
X218469298Y-79484185D01*
X217970104Y-79277412D01*
X217440162Y-79172000D01*
X216899838Y-79172000D01*
X216369896Y-79277412D01*
X215870702Y-79484185D01*
X215421440Y-79784373D01*
X215039373Y-80166440D01*
X214739185Y-80615702D01*
X214532412Y-81114896D01*
X214427000Y-81644838D01*
X186952233Y-81644838D01*
X186905505Y-81557417D01*
X186683318Y-81286682D01*
X186412583Y-81064495D01*
X186103703Y-80899395D01*
X185768549Y-80797727D01*
X185507338Y-80772000D01*
X185420000Y-80763398D01*
X185332662Y-80772000D01*
X180427338Y-80772000D01*
X180340000Y-80763398D01*
X180252662Y-80772000D01*
X179991451Y-80797727D01*
X179656297Y-80899395D01*
X179347417Y-81064495D01*
X179076682Y-81286682D01*
X178854495Y-81557417D01*
X178689395Y-81866297D01*
X178587727Y-82201451D01*
X178553398Y-82550000D01*
X178562001Y-82637348D01*
X178562000Y-92202000D01*
X177038000Y-92202000D01*
X177038000Y-87275486D01*
X177176410Y-86941337D01*
X177253000Y-86556293D01*
X177253000Y-86163707D01*
X177176410Y-85778663D01*
X177026173Y-85415961D01*
X176808064Y-85089537D01*
X176530463Y-84811936D01*
X176204039Y-84593827D01*
X175841337Y-84443590D01*
X175456293Y-84367000D01*
X175063707Y-84367000D01*
X174678663Y-84443590D01*
X174315961Y-84593827D01*
X174282557Y-84616147D01*
X174208089Y-84555032D01*
X174009523Y-84448897D01*
X173794067Y-84383539D01*
X173570000Y-84361470D01*
X171870000Y-84361470D01*
X171645933Y-84383539D01*
X171430477Y-84448897D01*
X171231911Y-84555032D01*
X171057867Y-84697867D01*
X170915032Y-84871911D01*
X170808897Y-85070477D01*
X170743539Y-85285933D01*
X170721470Y-85510000D01*
X170721470Y-87210000D01*
X170743539Y-87434067D01*
X170808897Y-87649523D01*
X170915032Y-87848089D01*
X170942000Y-87880950D01*
X170942001Y-94742000D01*
X170267338Y-94742000D01*
X170180000Y-94733398D01*
X170092662Y-94742000D01*
X169831451Y-94767727D01*
X169496297Y-94869395D01*
X169418000Y-94911246D01*
X169418000Y-94575338D01*
X169426602Y-94488000D01*
X169392273Y-94139451D01*
X169290605Y-93804297D01*
X169125505Y-93495417D01*
X169106287Y-93472000D01*
X169125505Y-93448583D01*
X169290605Y-93139703D01*
X169392273Y-92804549D01*
X169418000Y-92543338D01*
X169418000Y-92543337D01*
X169426602Y-92456000D01*
X169418000Y-92368662D01*
X169418000Y-84836337D01*
X169450483Y-84787723D01*
X169604488Y-84415921D01*
X169683000Y-84021218D01*
X169683000Y-83618782D01*
X169604488Y-83224079D01*
X169450483Y-82852277D01*
X169226902Y-82517664D01*
X168942336Y-82233098D01*
X168607723Y-82009517D01*
X168235921Y-81855512D01*
X167841218Y-81777000D01*
X167438782Y-81777000D01*
X167044079Y-81855512D01*
X166878000Y-81924304D01*
X166878000Y-81367338D01*
X166886602Y-81280000D01*
X166852273Y-80931451D01*
X166750605Y-80596297D01*
X166585505Y-80287417D01*
X166363318Y-80016682D01*
X166092583Y-79794495D01*
X165783703Y-79629395D01*
X165448549Y-79527727D01*
X165187338Y-79502000D01*
X165100000Y-79493398D01*
X165012662Y-79502000D01*
X149098000Y-79502000D01*
X149098000Y-78827338D01*
X149106602Y-78740000D01*
X149072273Y-78391451D01*
X148970605Y-78056297D01*
X148805505Y-77747417D01*
X148583318Y-77476682D01*
X148481351Y-77393000D01*
X222327001Y-77393000D01*
X222327000Y-113107000D01*
X46913000Y-113107000D01*
X46913000Y-108314838D01*
X49327000Y-108314838D01*
X49327000Y-108855162D01*
X49432412Y-109385104D01*
X49639185Y-109884298D01*
X49939373Y-110333560D01*
X50321440Y-110715627D01*
X50770702Y-111015815D01*
X51269896Y-111222588D01*
X51799838Y-111328000D01*
X52340162Y-111328000D01*
X52870104Y-111222588D01*
X53369298Y-111015815D01*
X53818560Y-110715627D01*
X54200627Y-110333560D01*
X54500815Y-109884298D01*
X54707588Y-109385104D01*
X54813000Y-108855162D01*
X54813000Y-108314838D01*
X54707588Y-107784896D01*
X54500815Y-107285702D01*
X54200627Y-106836440D01*
X53818560Y-106454373D01*
X53369298Y-106154185D01*
X52870104Y-105947412D01*
X52531201Y-105880000D01*
X137751470Y-105880000D01*
X137751470Y-107480000D01*
X137773539Y-107704067D01*
X137838897Y-107919523D01*
X137945032Y-108118089D01*
X138087867Y-108292133D01*
X138261911Y-108434968D01*
X138460477Y-108541103D01*
X138675933Y-108606461D01*
X138900000Y-108628530D01*
X139134059Y-108628530D01*
X140921007Y-110415478D01*
X140976682Y-110483318D01*
X141044521Y-110538992D01*
X141247416Y-110705505D01*
X141412516Y-110793752D01*
X141556297Y-110870605D01*
X141891451Y-110972273D01*
X142152662Y-110998000D01*
X142152672Y-110998000D01*
X142239999Y-111006601D01*
X142327327Y-110998000D01*
X152885169Y-110998000D01*
X153103248Y-111088331D01*
X153478631Y-111163000D01*
X153861369Y-111163000D01*
X154236752Y-111088331D01*
X154454831Y-110998000D01*
X156695169Y-110998000D01*
X156913248Y-111088331D01*
X157288631Y-111163000D01*
X157671369Y-111163000D01*
X158046752Y-111088331D01*
X158400355Y-110941864D01*
X158718590Y-110729226D01*
X158989226Y-110458590D01*
X159201864Y-110140355D01*
X159348331Y-109786752D01*
X159423000Y-109411369D01*
X159423000Y-109410502D01*
X159642104Y-109410502D01*
X159409963Y-109710643D01*
X159541807Y-110067992D01*
X159740833Y-110392754D01*
X159999393Y-110672447D01*
X160307550Y-110896324D01*
X160653462Y-111055780D01*
X160799358Y-111100032D01*
X161099500Y-110866265D01*
X161099500Y-109410500D01*
X161079500Y-109410500D01*
X161079500Y-109029500D01*
X161099500Y-109029500D01*
X161099500Y-107573735D01*
X160799358Y-107339968D01*
X160653462Y-107384220D01*
X160307550Y-107543676D01*
X159999393Y-107767553D01*
X159740833Y-108047246D01*
X159541807Y-108372008D01*
X159409963Y-108729357D01*
X159642104Y-109029498D01*
X159423000Y-109029498D01*
X159423000Y-109028631D01*
X159348331Y-108653248D01*
X159201864Y-108299645D01*
X158989226Y-107981410D01*
X158718590Y-107710774D01*
X158400355Y-107498136D01*
X158046752Y-107351669D01*
X157671369Y-107277000D01*
X157288631Y-107277000D01*
X156913248Y-107351669D01*
X156695169Y-107442000D01*
X154454831Y-107442000D01*
X154236752Y-107351669D01*
X153861369Y-107277000D01*
X153478631Y-107277000D01*
X153103248Y-107351669D01*
X152885169Y-107442000D01*
X146488272Y-107442000D01*
X146544354Y-107320491D01*
X146633869Y-106948368D01*
X146649066Y-106565932D01*
X146589362Y-106187880D01*
X146457050Y-105828740D01*
X146383962Y-105692001D01*
X146005480Y-105643927D01*
X144969408Y-106680000D01*
X144983550Y-106694142D01*
X144714142Y-106963550D01*
X144700000Y-106949408D01*
X144685858Y-106963550D01*
X144416450Y-106694142D01*
X144430592Y-106680000D01*
X143394520Y-105643927D01*
X143016038Y-105692001D01*
X142855646Y-106039509D01*
X142766131Y-106411632D01*
X142750934Y-106794068D01*
X142810638Y-107172120D01*
X142871330Y-107336859D01*
X141648530Y-106114059D01*
X141648530Y-105880000D01*
X141626461Y-105655933D01*
X141561103Y-105440477D01*
X141525849Y-105374520D01*
X143663927Y-105374520D01*
X144700000Y-106410592D01*
X145736073Y-105374520D01*
X145687999Y-104996038D01*
X145340491Y-104835646D01*
X144968368Y-104746131D01*
X144585932Y-104730934D01*
X144207880Y-104790638D01*
X143848740Y-104922950D01*
X143712001Y-104996038D01*
X143663927Y-105374520D01*
X141525849Y-105374520D01*
X141454968Y-105241911D01*
X141312133Y-105067867D01*
X141138089Y-104925032D01*
X140939523Y-104818897D01*
X140724067Y-104753539D01*
X140500000Y-104731470D01*
X138900000Y-104731470D01*
X138675933Y-104753539D01*
X138460477Y-104818897D01*
X138261911Y-104925032D01*
X138087867Y-105067867D01*
X137945032Y-105241911D01*
X137838897Y-105440477D01*
X137773539Y-105655933D01*
X137751470Y-105880000D01*
X52531201Y-105880000D01*
X52340162Y-105842000D01*
X51799838Y-105842000D01*
X51269896Y-105947412D01*
X50770702Y-106154185D01*
X50321440Y-106454373D01*
X49939373Y-106836440D01*
X49639185Y-107285702D01*
X49432412Y-107784896D01*
X49327000Y-108314838D01*
X46913000Y-108314838D01*
X46913000Y-103720000D01*
X113571470Y-103720000D01*
X113593539Y-103944067D01*
X113658897Y-104159523D01*
X113765032Y-104358089D01*
X113907867Y-104532133D01*
X114081911Y-104674968D01*
X114280477Y-104781103D01*
X114495933Y-104846461D01*
X114720000Y-104868530D01*
X115093750Y-104863000D01*
X115379500Y-104577250D01*
X115379500Y-103060500D01*
X115760500Y-103060500D01*
X115760500Y-104577250D01*
X116046250Y-104863000D01*
X116420000Y-104868530D01*
X116644067Y-104846461D01*
X116859523Y-104781103D01*
X117058089Y-104674968D01*
X117232133Y-104532133D01*
X117374968Y-104358089D01*
X117481103Y-104159523D01*
X117546461Y-103944067D01*
X117568530Y-103720000D01*
X121191470Y-103720000D01*
X121213539Y-103944067D01*
X121278897Y-104159523D01*
X121385032Y-104358089D01*
X121527867Y-104532133D01*
X121701911Y-104674968D01*
X121900477Y-104781103D01*
X122115933Y-104846461D01*
X122340000Y-104868530D01*
X122713750Y-104863000D01*
X122999500Y-104577250D01*
X122999500Y-103060500D01*
X123380500Y-103060500D01*
X123380500Y-104577250D01*
X123666250Y-104863000D01*
X124040000Y-104868530D01*
X124264067Y-104846461D01*
X124479523Y-104781103D01*
X124678089Y-104674968D01*
X124852133Y-104532133D01*
X124994968Y-104358089D01*
X125101103Y-104159523D01*
X125166461Y-103944067D01*
X125188530Y-103720000D01*
X125183000Y-103346250D01*
X124897250Y-103060500D01*
X123380500Y-103060500D01*
X122999500Y-103060500D01*
X121482750Y-103060500D01*
X121197000Y-103346250D01*
X121191470Y-103720000D01*
X117568530Y-103720000D01*
X117563000Y-103346250D01*
X117277250Y-103060500D01*
X115760500Y-103060500D01*
X115379500Y-103060500D01*
X113862750Y-103060500D01*
X113577000Y-103346250D01*
X113571470Y-103720000D01*
X46913000Y-103720000D01*
X46913000Y-81644838D01*
X49327000Y-81644838D01*
X49327000Y-82185162D01*
X49432412Y-82715104D01*
X49639185Y-83214298D01*
X49939373Y-83663560D01*
X50321440Y-84045627D01*
X50770702Y-84345815D01*
X51269896Y-84552588D01*
X51799838Y-84658000D01*
X52340162Y-84658000D01*
X52870104Y-84552588D01*
X53369298Y-84345815D01*
X53818560Y-84045627D01*
X54200627Y-83663560D01*
X54500815Y-83214298D01*
X54707588Y-82715104D01*
X54813000Y-82185162D01*
X54813000Y-81644838D01*
X54707588Y-81114896D01*
X54500815Y-80615702D01*
X54200627Y-80166440D01*
X53818560Y-79784373D01*
X53369298Y-79484185D01*
X52870104Y-79277412D01*
X52340162Y-79172000D01*
X51799838Y-79172000D01*
X51269896Y-79277412D01*
X50770702Y-79484185D01*
X50321440Y-79784373D01*
X49939373Y-80166440D01*
X49639185Y-80615702D01*
X49432412Y-81114896D01*
X49327000Y-81644838D01*
X46913000Y-81644838D01*
X46913000Y-77393000D01*
X66148648Y-77393000D01*
X66114521Y-77421007D01*
G37*
%TD.AperFunction*%
%TD*%
M02*
