M48
; DRILL file {KiCad (5.1.10)-1} date 09/28/21 13:49:41
; FORMAT={-:-/ absolute / inch / decimal}
; #@! TF.CreationDate,2021-09-28T13:49:41-04:00
; #@! TF.GenerationSoftware,Kicad,Pcbnew,(5.1.10)-1
; #@! TF.FileFunction,Plated,1,2,PTH
FMAT,2
INCH
T1C0.0295
T2C0.0315
T3C0.0354
T4C0.0394
T5C0.0433
%
G90
G05
T1
X6.16Y-3.48
X6.21Y-3.48
X6.26Y-3.48
X6.8Y-4.2
X6.85Y-4.2
X6.9Y-4.2
T2
X3.1Y-3.35
X3.1Y-3.65
X3.7Y-3.35
X3.7Y-3.65
X4.3Y-3.35
X4.3Y-3.65
X4.9Y-3.35
X4.9Y-3.65
X5.5Y-3.35
X5.5Y-3.65
X5.5Y-4.2
X5.6969Y-4.2
X5.7Y-3.4
X5.7Y-3.55
X5.7Y-3.7
X5.7Y-3.85
X6.0Y-3.4
X6.0Y-3.55
X6.0Y-3.7
X6.0Y-3.85
X6.05Y-4.0
X6.05Y-4.3
X6.2Y-4.0
X6.2Y-4.3
X6.35Y-4.0
X6.35Y-4.3
X6.5Y-3.8
X6.5Y-3.95
X6.5Y-4.1
X6.5Y-4.2969
X6.8Y-3.8
X6.8Y-3.95
X7.1Y-3.8
X7.1Y-4.05
X7.1Y-4.2
X7.2969Y-3.8
X7.4Y-4.05
X7.4Y-4.2
X7.65Y-3.4
X7.65Y-3.5969
X7.65Y-3.8031
X7.65Y-4.0
X7.9Y-3.7
X7.9Y-4.0
T3
X3.1Y-3.9
X3.1Y-4.0
X3.4Y-3.9
X3.4Y-4.0
X3.7Y-3.9
X3.7Y-4.0
X4.0Y-3.9
X4.0Y-4.0
T4
X2.2Y-3.45
X2.2Y-3.55
X2.2Y-3.65
X2.2Y-3.75
X2.2Y-3.85
X2.2Y-3.95
X2.65Y-3.65
X2.65Y-3.75
X2.7Y-3.3
X2.8Y-3.3
X2.9Y-3.3
X3.3Y-3.3
X3.4Y-3.3
X3.5Y-3.3
X3.9Y-3.3
X4.0Y-3.3
X4.1Y-3.3
X4.5Y-3.3
X4.55Y-3.85
X4.55Y-3.95
X4.55Y-4.05
X4.6Y-3.3
X4.7Y-3.3
X4.85Y-3.85
X4.85Y-3.95
X4.85Y-4.05
X5.1Y-3.3
X5.2Y-3.3
X5.3Y-3.3
X6.4Y-3.3
X6.5Y-3.3
X6.6Y-3.3
X6.8Y-3.4
X6.9Y-3.4
X8.2Y-3.4
X8.2Y-3.5
X8.2Y-4.2
X8.2Y-4.3
T5
X7.2Y-3.35
X7.3Y-3.35
X7.4Y-3.35
T0
M30
