%TF.GenerationSoftware,KiCad,Pcbnew,(5.1.10)-1*%
%TF.CreationDate,2021-09-28T13:49:37-04:00*%
%TF.ProjectId,LED Driver,4c454420-4472-4697-9665-722e6b696361,C*%
%TF.SameCoordinates,Original*%
%TF.FileFunction,Legend,Top*%
%TF.FilePolarity,Positive*%
%FSLAX46Y46*%
G04 Gerber Fmt 4.6, Leading zero omitted, Abs format (unit mm)*
G04 Created by KiCad (PCBNEW (5.1.10)-1) date 2021-09-28 13:49:37*
%MOMM*%
%LPD*%
G01*
G04 APERTURE LIST*
%ADD10C,0.300000*%
%ADD11C,0.120000*%
%ADD12C,0.150000*%
G04 APERTURE END LIST*
D10*
X202347142Y-81958571D02*
X202347142Y-80458571D01*
X202918571Y-80458571D01*
X203061428Y-80530000D01*
X203132857Y-80601428D01*
X203204285Y-80744285D01*
X203204285Y-80958571D01*
X203132857Y-81101428D01*
X203061428Y-81172857D01*
X202918571Y-81244285D01*
X202347142Y-81244285D01*
X203847142Y-81958571D02*
X203847142Y-80458571D01*
X204347142Y-81530000D01*
X204847142Y-80458571D01*
X204847142Y-81958571D01*
X206204285Y-80958571D02*
X206204285Y-81958571D01*
X205847142Y-80387142D02*
X205490000Y-81458571D01*
X206418571Y-81458571D01*
X207061428Y-81958571D02*
X207347142Y-81958571D01*
X207490000Y-81887142D01*
X207561428Y-81815714D01*
X207704285Y-81601428D01*
X207775714Y-81315714D01*
X207775714Y-80744285D01*
X207704285Y-80601428D01*
X207632857Y-80530000D01*
X207490000Y-80458571D01*
X207204285Y-80458571D01*
X207061428Y-80530000D01*
X206990000Y-80601428D01*
X206918571Y-80744285D01*
X206918571Y-81101428D01*
X206990000Y-81244285D01*
X207061428Y-81315714D01*
X207204285Y-81387142D01*
X207490000Y-81387142D01*
X207632857Y-81315714D01*
X207704285Y-81244285D01*
X207775714Y-81101428D01*
X208704285Y-80458571D02*
X208847142Y-80458571D01*
X208990000Y-80530000D01*
X209061428Y-80601428D01*
X209132857Y-80744285D01*
X209204285Y-81030000D01*
X209204285Y-81387142D01*
X209132857Y-81672857D01*
X209061428Y-81815714D01*
X208990000Y-81887142D01*
X208847142Y-81958571D01*
X208704285Y-81958571D01*
X208561428Y-81887142D01*
X208490000Y-81815714D01*
X208418571Y-81672857D01*
X208347142Y-81387142D01*
X208347142Y-81030000D01*
X208418571Y-80744285D01*
X208490000Y-80601428D01*
X208561428Y-80530000D01*
X208704285Y-80458571D01*
D11*
%TO.C,D4*%
X77504000Y-101890000D02*
X77660000Y-101890000D01*
X79820000Y-101890000D02*
X79976000Y-101890000D01*
X77661392Y-98657665D02*
G75*
G03*
X77504484Y-101890000I1078608J-1672335D01*
G01*
X79818608Y-98657665D02*
G75*
G02*
X79975516Y-101890000I-1078608J-1672335D01*
G01*
X77660163Y-99288870D02*
G75*
G03*
X77660000Y-101370961I1079837J-1041130D01*
G01*
X79819837Y-99288870D02*
G75*
G02*
X79820000Y-101370961I-1079837J-1041130D01*
G01*
%TO.C,R17*%
X77370000Y-92170000D02*
X77700000Y-92170000D01*
X77370000Y-85630000D02*
X77370000Y-92170000D01*
X77700000Y-85630000D02*
X77370000Y-85630000D01*
X80110000Y-92170000D02*
X79780000Y-92170000D01*
X80110000Y-85630000D02*
X80110000Y-92170000D01*
X79780000Y-85630000D02*
X80110000Y-85630000D01*
%TO.C,R16*%
X92610000Y-92170000D02*
X92940000Y-92170000D01*
X92610000Y-85630000D02*
X92610000Y-92170000D01*
X92940000Y-85630000D02*
X92610000Y-85630000D01*
X95350000Y-92170000D02*
X95020000Y-92170000D01*
X95350000Y-85630000D02*
X95350000Y-92170000D01*
X95020000Y-85630000D02*
X95350000Y-85630000D01*
%TO.C,R15*%
X107850000Y-92170000D02*
X108180000Y-92170000D01*
X107850000Y-85630000D02*
X107850000Y-92170000D01*
X108180000Y-85630000D02*
X107850000Y-85630000D01*
X110590000Y-92170000D02*
X110260000Y-92170000D01*
X110590000Y-85630000D02*
X110590000Y-92170000D01*
X110260000Y-85630000D02*
X110590000Y-85630000D01*
%TO.C,R14*%
X125500000Y-85630000D02*
X125830000Y-85630000D01*
X125830000Y-85630000D02*
X125830000Y-92170000D01*
X125830000Y-92170000D02*
X125500000Y-92170000D01*
X123420000Y-85630000D02*
X123090000Y-85630000D01*
X123090000Y-85630000D02*
X123090000Y-92170000D01*
X123090000Y-92170000D02*
X123420000Y-92170000D01*
%TO.C,R12*%
X138330000Y-92170000D02*
X138660000Y-92170000D01*
X138330000Y-85630000D02*
X138330000Y-92170000D01*
X138660000Y-85630000D02*
X138330000Y-85630000D01*
X141070000Y-92170000D02*
X140740000Y-92170000D01*
X141070000Y-85630000D02*
X141070000Y-92170000D01*
X140740000Y-85630000D02*
X141070000Y-85630000D01*
%TO.C,Q8*%
X67000000Y-81700000D02*
X75240000Y-81700000D01*
X67000000Y-85190000D02*
X75240000Y-85190000D01*
X67000000Y-81700000D02*
X67000000Y-85190000D01*
X75240000Y-81700000D02*
X75240000Y-85190000D01*
X69520000Y-81700000D02*
X69520000Y-82770000D01*
X69520000Y-84870000D02*
X69520000Y-85190000D01*
X72721000Y-81700000D02*
X72721000Y-83280000D01*
X72721000Y-84360000D02*
X72721000Y-85190000D01*
%TO.C,Q7*%
X87961000Y-84360000D02*
X87961000Y-85190000D01*
X87961000Y-81700000D02*
X87961000Y-83280000D01*
X84760000Y-84870000D02*
X84760000Y-85190000D01*
X84760000Y-81700000D02*
X84760000Y-82770000D01*
X90480000Y-81700000D02*
X90480000Y-85190000D01*
X82240000Y-81700000D02*
X82240000Y-85190000D01*
X82240000Y-85190000D02*
X90480000Y-85190000D01*
X82240000Y-81700000D02*
X90480000Y-81700000D01*
%TO.C,Q6*%
X103201000Y-84360000D02*
X103201000Y-85190000D01*
X103201000Y-81700000D02*
X103201000Y-83280000D01*
X100000000Y-84870000D02*
X100000000Y-85190000D01*
X100000000Y-81700000D02*
X100000000Y-82770000D01*
X105720000Y-81700000D02*
X105720000Y-85190000D01*
X97480000Y-81700000D02*
X97480000Y-85190000D01*
X97480000Y-85190000D02*
X105720000Y-85190000D01*
X97480000Y-81700000D02*
X105720000Y-81700000D01*
%TO.C,Q5*%
X118441000Y-84360000D02*
X118441000Y-85190000D01*
X118441000Y-81700000D02*
X118441000Y-83280000D01*
X115240000Y-84870000D02*
X115240000Y-85190000D01*
X115240000Y-81700000D02*
X115240000Y-82770000D01*
X120960000Y-81700000D02*
X120960000Y-85190000D01*
X112720000Y-81700000D02*
X112720000Y-85190000D01*
X112720000Y-85190000D02*
X120960000Y-85190000D01*
X112720000Y-81700000D02*
X120960000Y-81700000D01*
%TO.C,Q4*%
X133681000Y-84360000D02*
X133681000Y-85190000D01*
X133681000Y-81700000D02*
X133681000Y-83280000D01*
X130480000Y-84870000D02*
X130480000Y-85190000D01*
X130480000Y-81700000D02*
X130480000Y-82770000D01*
X136200000Y-81700000D02*
X136200000Y-85190000D01*
X127960000Y-81700000D02*
X127960000Y-85190000D01*
X127960000Y-85190000D02*
X136200000Y-85190000D01*
X127960000Y-81700000D02*
X136200000Y-81700000D01*
%TO.C,Q3*%
X166701000Y-84360000D02*
X166701000Y-85190000D01*
X166701000Y-81700000D02*
X166701000Y-83280000D01*
X163500000Y-84870000D02*
X163500000Y-85190000D01*
X163500000Y-81700000D02*
X163500000Y-82770000D01*
X169220000Y-81700000D02*
X169220000Y-85190000D01*
X160980000Y-81700000D02*
X160980000Y-85190000D01*
X160980000Y-85190000D02*
X169220000Y-85190000D01*
X160980000Y-81700000D02*
X169220000Y-81700000D01*
%TO.C,Q1*%
X175790000Y-104830000D02*
X172190000Y-104830000D01*
X172151522Y-104841522D02*
G75*
G03*
X173990000Y-109280000I1838478J-1838478D01*
G01*
X175828478Y-104841522D02*
G75*
G02*
X173990000Y-109280000I-1838478J-1838478D01*
G01*
%TO.C,Q2*%
X159534000Y-86542000D02*
X155934000Y-86542000D01*
X155895522Y-86553522D02*
G75*
G03*
X157734000Y-90992000I1838478J-1838478D01*
G01*
X159572478Y-86553522D02*
G75*
G02*
X157734000Y-90992000I-1838478J-1838478D01*
G01*
%TO.C,R1*%
X201700000Y-94520000D02*
X202030000Y-94520000D01*
X202030000Y-94520000D02*
X202030000Y-101060000D01*
X202030000Y-101060000D02*
X201700000Y-101060000D01*
X199620000Y-94520000D02*
X199290000Y-94520000D01*
X199290000Y-94520000D02*
X199290000Y-101060000D01*
X199290000Y-101060000D02*
X199620000Y-101060000D01*
%TO.C,R3*%
X180880000Y-105310000D02*
X180880000Y-105640000D01*
X187420000Y-105310000D02*
X180880000Y-105310000D01*
X187420000Y-105640000D02*
X187420000Y-105310000D01*
X180880000Y-108050000D02*
X180880000Y-107720000D01*
X187420000Y-108050000D02*
X180880000Y-108050000D01*
X187420000Y-107720000D02*
X187420000Y-108050000D01*
%TO.C,R4*%
X165640000Y-98960000D02*
X165640000Y-99290000D01*
X172180000Y-98960000D02*
X165640000Y-98960000D01*
X172180000Y-99290000D02*
X172180000Y-98960000D01*
X165640000Y-101700000D02*
X165640000Y-101370000D01*
X172180000Y-101700000D02*
X165640000Y-101700000D01*
X172180000Y-101370000D02*
X172180000Y-101700000D01*
%TO.C,R5*%
X172180000Y-97560000D02*
X172180000Y-97890000D01*
X172180000Y-97890000D02*
X165640000Y-97890000D01*
X165640000Y-97890000D02*
X165640000Y-97560000D01*
X172180000Y-95480000D02*
X172180000Y-95150000D01*
X172180000Y-95150000D02*
X165640000Y-95150000D01*
X165640000Y-95150000D02*
X165640000Y-95480000D01*
%TO.C,R6*%
X162330000Y-102140000D02*
X162660000Y-102140000D01*
X162660000Y-102140000D02*
X162660000Y-108680000D01*
X162660000Y-108680000D02*
X162330000Y-108680000D01*
X160250000Y-102140000D02*
X159920000Y-102140000D01*
X159920000Y-102140000D02*
X159920000Y-108680000D01*
X159920000Y-108680000D02*
X160250000Y-108680000D01*
%TO.C,R7*%
X156110000Y-108680000D02*
X156440000Y-108680000D01*
X156110000Y-102140000D02*
X156110000Y-108680000D01*
X156440000Y-102140000D02*
X156110000Y-102140000D01*
X158850000Y-108680000D02*
X158520000Y-108680000D01*
X158850000Y-102140000D02*
X158850000Y-108680000D01*
X158520000Y-102140000D02*
X158850000Y-102140000D01*
%TO.C,R8*%
X152630000Y-108680000D02*
X152300000Y-108680000D01*
X152300000Y-108680000D02*
X152300000Y-102140000D01*
X152300000Y-102140000D02*
X152630000Y-102140000D01*
X154710000Y-108680000D02*
X155040000Y-108680000D01*
X155040000Y-108680000D02*
X155040000Y-102140000D01*
X155040000Y-102140000D02*
X154710000Y-102140000D01*
%TO.C,R9*%
X145320000Y-96420000D02*
X145320000Y-96750000D01*
X151860000Y-96420000D02*
X145320000Y-96420000D01*
X151860000Y-96750000D02*
X151860000Y-96420000D01*
X145320000Y-99160000D02*
X145320000Y-98830000D01*
X151860000Y-99160000D02*
X145320000Y-99160000D01*
X151860000Y-98830000D02*
X151860000Y-99160000D01*
%TO.C,R10*%
X145320000Y-84990000D02*
X145320000Y-85320000D01*
X151860000Y-84990000D02*
X145320000Y-84990000D01*
X151860000Y-85320000D02*
X151860000Y-84990000D01*
X145320000Y-87730000D02*
X145320000Y-87400000D01*
X151860000Y-87730000D02*
X145320000Y-87730000D01*
X151860000Y-87400000D02*
X151860000Y-87730000D01*
%TO.C,R11*%
X145320000Y-88800000D02*
X145320000Y-89130000D01*
X151860000Y-88800000D02*
X145320000Y-88800000D01*
X151860000Y-89130000D02*
X151860000Y-88800000D01*
X145320000Y-91540000D02*
X145320000Y-91210000D01*
X151860000Y-91540000D02*
X145320000Y-91540000D01*
X151860000Y-91210000D02*
X151860000Y-91540000D01*
%TO.C,R13*%
X151860000Y-95020000D02*
X151860000Y-95350000D01*
X151860000Y-95350000D02*
X145320000Y-95350000D01*
X145320000Y-95350000D02*
X145320000Y-95020000D01*
X151860000Y-92940000D02*
X151860000Y-92610000D01*
X151860000Y-92610000D02*
X145320000Y-92610000D01*
X145320000Y-92610000D02*
X145320000Y-92940000D01*
%TO.C,U1*%
X187271000Y-81820000D02*
X187271000Y-83330000D01*
X183570000Y-81820000D02*
X183570000Y-83330000D01*
X180300000Y-83330000D02*
X190540000Y-83330000D01*
X190540000Y-81820000D02*
X190540000Y-86461000D01*
X180300000Y-81820000D02*
X180300000Y-86461000D01*
X180300000Y-86461000D02*
X190540000Y-86461000D01*
X180300000Y-81820000D02*
X190540000Y-81820000D01*
%TO.C,R2*%
X187420000Y-103910000D02*
X187420000Y-104240000D01*
X187420000Y-104240000D02*
X180880000Y-104240000D01*
X180880000Y-104240000D02*
X180880000Y-103910000D01*
X187420000Y-101830000D02*
X187420000Y-101500000D01*
X187420000Y-101500000D02*
X180880000Y-101500000D01*
X180880000Y-101500000D02*
X180880000Y-101830000D01*
%TO.C,J1*%
X57210000Y-101660000D02*
X55880000Y-101660000D01*
X57210000Y-100330000D02*
X57210000Y-101660000D01*
X57210000Y-99060000D02*
X54550000Y-99060000D01*
X54550000Y-99060000D02*
X54550000Y-86300000D01*
X57210000Y-99060000D02*
X57210000Y-86300000D01*
X57210000Y-86300000D02*
X54550000Y-86300000D01*
%TO.C,J4*%
X68640000Y-91380000D02*
X65980000Y-91380000D01*
X68640000Y-93980000D02*
X68640000Y-91380000D01*
X65980000Y-93980000D02*
X65980000Y-91380000D01*
X68640000Y-93980000D02*
X65980000Y-93980000D01*
X68640000Y-95250000D02*
X68640000Y-96580000D01*
X68640000Y-96580000D02*
X67310000Y-96580000D01*
%TO.C,JP1A1*%
X116900000Y-96460000D02*
X114240000Y-96460000D01*
X116900000Y-101600000D02*
X116900000Y-96460000D01*
X114240000Y-101600000D02*
X114240000Y-96460000D01*
X116900000Y-101600000D02*
X114240000Y-101600000D01*
X116900000Y-102870000D02*
X116900000Y-104200000D01*
X116900000Y-104200000D02*
X115570000Y-104200000D01*
%TO.C,JP1B1*%
X124520000Y-96460000D02*
X121860000Y-96460000D01*
X124520000Y-101600000D02*
X124520000Y-96460000D01*
X121860000Y-101600000D02*
X121860000Y-96460000D01*
X124520000Y-101600000D02*
X121860000Y-101600000D01*
X124520000Y-102870000D02*
X124520000Y-104200000D01*
X124520000Y-104200000D02*
X123190000Y-104200000D01*
%TO.C,JP2*%
X176590000Y-87690000D02*
X176590000Y-85030000D01*
X173990000Y-87690000D02*
X176590000Y-87690000D01*
X173990000Y-85030000D02*
X176590000Y-85030000D01*
X173990000Y-87690000D02*
X173990000Y-85030000D01*
X172720000Y-87690000D02*
X171390000Y-87690000D01*
X171390000Y-87690000D02*
X171390000Y-86360000D01*
%TO.C,J3*%
X206950000Y-90230000D02*
X209610000Y-90230000D01*
X206950000Y-87630000D02*
X206950000Y-90230000D01*
X209610000Y-87630000D02*
X209610000Y-90230000D01*
X206950000Y-87630000D02*
X209610000Y-87630000D01*
X206950000Y-86360000D02*
X206950000Y-85030000D01*
X206950000Y-85030000D02*
X208280000Y-85030000D01*
%TO.C,J2*%
X206950000Y-110550000D02*
X209610000Y-110550000D01*
X206950000Y-107950000D02*
X206950000Y-110550000D01*
X209610000Y-107950000D02*
X209610000Y-110550000D01*
X206950000Y-107950000D02*
X209610000Y-107950000D01*
X206950000Y-106680000D02*
X206950000Y-105350000D01*
X206950000Y-105350000D02*
X208280000Y-105350000D01*
%TO.C,C4*%
X139662712Y-105345000D02*
X140112712Y-105345000D01*
X139887712Y-105120000D02*
X139887712Y-105570000D01*
X144319740Y-105620000D02*
G75*
G03*
X140080259Y-105620000I-2119740J-1060000D01*
G01*
X144319740Y-107740000D02*
G75*
G02*
X140080259Y-107740000I-2119740J1060000D01*
G01*
%TO.C,C3*%
X180302712Y-95185000D02*
X180752712Y-95185000D01*
X180527712Y-94960000D02*
X180527712Y-95410000D01*
X184959740Y-95460000D02*
G75*
G03*
X180720259Y-95460000I-2119740J-1060000D01*
G01*
X184959740Y-97580000D02*
G75*
G02*
X180720259Y-97580000I-2119740J1060000D01*
G01*
%TO.C,C2*%
X192975000Y-101637288D02*
X192975000Y-101187288D01*
X192750000Y-101412288D02*
X193200000Y-101412288D01*
X193250000Y-96980260D02*
G75*
G03*
X193250000Y-101219741I1060000J-2119740D01*
G01*
X195370000Y-96980260D02*
G75*
G02*
X195370000Y-101219741I-1060000J-2119740D01*
G01*
%TO.C,C1*%
X195645000Y-86322712D02*
X195645000Y-86772712D01*
X195870000Y-86547712D02*
X195420000Y-86547712D01*
X195370000Y-90979740D02*
G75*
G03*
X195370000Y-86740259I-1060000J2119740D01*
G01*
X193250000Y-90979740D02*
G75*
G02*
X193250000Y-86740259I1060000J2119740D01*
G01*
%TO.C,C5*%
X166470000Y-104020000D02*
X166470000Y-109260000D01*
X163730000Y-104020000D02*
X163730000Y-109260000D01*
X166470000Y-104020000D02*
X166155000Y-104020000D01*
X164045000Y-104020000D02*
X163730000Y-104020000D01*
X166470000Y-109260000D02*
X166155000Y-109260000D01*
X164045000Y-109260000D02*
X163730000Y-109260000D01*
%TO.C,D1*%
X100364000Y-101890000D02*
X100520000Y-101890000D01*
X102680000Y-101890000D02*
X102836000Y-101890000D01*
X100521392Y-98657665D02*
G75*
G03*
X100364484Y-101890000I1078608J-1672335D01*
G01*
X102678608Y-98657665D02*
G75*
G02*
X102835516Y-101890000I-1078608J-1672335D01*
G01*
X100520163Y-99288870D02*
G75*
G03*
X100520000Y-101370961I1079837J-1041130D01*
G01*
X102679837Y-99288870D02*
G75*
G02*
X102680000Y-101370961I-1079837J-1041130D01*
G01*
%TO.C,D2*%
X95060000Y-101890000D02*
X95216000Y-101890000D01*
X92744000Y-101890000D02*
X92900000Y-101890000D01*
X95059837Y-99288870D02*
G75*
G02*
X95060000Y-101370961I-1079837J-1041130D01*
G01*
X92900163Y-99288870D02*
G75*
G03*
X92900000Y-101370961I1079837J-1041130D01*
G01*
X95058608Y-98657665D02*
G75*
G02*
X95215516Y-101890000I-1078608J-1672335D01*
G01*
X92901392Y-98657665D02*
G75*
G03*
X92744484Y-101890000I1078608J-1672335D01*
G01*
%TO.C,D3*%
X87440000Y-101890000D02*
X87596000Y-101890000D01*
X85124000Y-101890000D02*
X85280000Y-101890000D01*
X87439837Y-99288870D02*
G75*
G02*
X87440000Y-101370961I-1079837J-1041130D01*
G01*
X85280163Y-99288870D02*
G75*
G03*
X85280000Y-101370961I1079837J-1041130D01*
G01*
X87438608Y-98657665D02*
G75*
G02*
X87595516Y-101890000I-1078608J-1672335D01*
G01*
X85281392Y-98657665D02*
G75*
G03*
X85124484Y-101890000I1078608J-1672335D01*
G01*
%TO.C,D4*%
D12*
X76232380Y-101068095D02*
X75232380Y-101068095D01*
X75232380Y-100830000D01*
X75280000Y-100687142D01*
X75375238Y-100591904D01*
X75470476Y-100544285D01*
X75660952Y-100496666D01*
X75803809Y-100496666D01*
X75994285Y-100544285D01*
X76089523Y-100591904D01*
X76184761Y-100687142D01*
X76232380Y-100830000D01*
X76232380Y-101068095D01*
X75565714Y-99639523D02*
X76232380Y-99639523D01*
X75184761Y-99877619D02*
X75899047Y-100115714D01*
X75899047Y-99496666D01*
%TO.C,R17*%
X76652380Y-89542857D02*
X76176190Y-89876190D01*
X76652380Y-90114285D02*
X75652380Y-90114285D01*
X75652380Y-89733333D01*
X75700000Y-89638095D01*
X75747619Y-89590476D01*
X75842857Y-89542857D01*
X75985714Y-89542857D01*
X76080952Y-89590476D01*
X76128571Y-89638095D01*
X76176190Y-89733333D01*
X76176190Y-90114285D01*
X76652380Y-88590476D02*
X76652380Y-89161904D01*
X76652380Y-88876190D02*
X75652380Y-88876190D01*
X75795238Y-88971428D01*
X75890476Y-89066666D01*
X75938095Y-89161904D01*
X75652380Y-88257142D02*
X75652380Y-87590476D01*
X76652380Y-88019047D01*
%TO.C,R16*%
X91892380Y-89542857D02*
X91416190Y-89876190D01*
X91892380Y-90114285D02*
X90892380Y-90114285D01*
X90892380Y-89733333D01*
X90940000Y-89638095D01*
X90987619Y-89590476D01*
X91082857Y-89542857D01*
X91225714Y-89542857D01*
X91320952Y-89590476D01*
X91368571Y-89638095D01*
X91416190Y-89733333D01*
X91416190Y-90114285D01*
X91892380Y-88590476D02*
X91892380Y-89161904D01*
X91892380Y-88876190D02*
X90892380Y-88876190D01*
X91035238Y-88971428D01*
X91130476Y-89066666D01*
X91178095Y-89161904D01*
X90892380Y-87733333D02*
X90892380Y-87923809D01*
X90940000Y-88019047D01*
X90987619Y-88066666D01*
X91130476Y-88161904D01*
X91320952Y-88209523D01*
X91701904Y-88209523D01*
X91797142Y-88161904D01*
X91844761Y-88114285D01*
X91892380Y-88019047D01*
X91892380Y-87828571D01*
X91844761Y-87733333D01*
X91797142Y-87685714D01*
X91701904Y-87638095D01*
X91463809Y-87638095D01*
X91368571Y-87685714D01*
X91320952Y-87733333D01*
X91273333Y-87828571D01*
X91273333Y-88019047D01*
X91320952Y-88114285D01*
X91368571Y-88161904D01*
X91463809Y-88209523D01*
%TO.C,R15*%
X107132380Y-89542857D02*
X106656190Y-89876190D01*
X107132380Y-90114285D02*
X106132380Y-90114285D01*
X106132380Y-89733333D01*
X106180000Y-89638095D01*
X106227619Y-89590476D01*
X106322857Y-89542857D01*
X106465714Y-89542857D01*
X106560952Y-89590476D01*
X106608571Y-89638095D01*
X106656190Y-89733333D01*
X106656190Y-90114285D01*
X107132380Y-88590476D02*
X107132380Y-89161904D01*
X107132380Y-88876190D02*
X106132380Y-88876190D01*
X106275238Y-88971428D01*
X106370476Y-89066666D01*
X106418095Y-89161904D01*
X106132380Y-87685714D02*
X106132380Y-88161904D01*
X106608571Y-88209523D01*
X106560952Y-88161904D01*
X106513333Y-88066666D01*
X106513333Y-87828571D01*
X106560952Y-87733333D01*
X106608571Y-87685714D01*
X106703809Y-87638095D01*
X106941904Y-87638095D01*
X107037142Y-87685714D01*
X107084761Y-87733333D01*
X107132380Y-87828571D01*
X107132380Y-88066666D01*
X107084761Y-88161904D01*
X107037142Y-88209523D01*
%TO.C,R14*%
X122372380Y-89542857D02*
X121896190Y-89876190D01*
X122372380Y-90114285D02*
X121372380Y-90114285D01*
X121372380Y-89733333D01*
X121420000Y-89638095D01*
X121467619Y-89590476D01*
X121562857Y-89542857D01*
X121705714Y-89542857D01*
X121800952Y-89590476D01*
X121848571Y-89638095D01*
X121896190Y-89733333D01*
X121896190Y-90114285D01*
X122372380Y-88590476D02*
X122372380Y-89161904D01*
X122372380Y-88876190D02*
X121372380Y-88876190D01*
X121515238Y-88971428D01*
X121610476Y-89066666D01*
X121658095Y-89161904D01*
X121705714Y-87733333D02*
X122372380Y-87733333D01*
X121324761Y-87971428D02*
X122039047Y-88209523D01*
X122039047Y-87590476D01*
%TO.C,R12*%
X137612380Y-89542857D02*
X137136190Y-89876190D01*
X137612380Y-90114285D02*
X136612380Y-90114285D01*
X136612380Y-89733333D01*
X136660000Y-89638095D01*
X136707619Y-89590476D01*
X136802857Y-89542857D01*
X136945714Y-89542857D01*
X137040952Y-89590476D01*
X137088571Y-89638095D01*
X137136190Y-89733333D01*
X137136190Y-90114285D01*
X137612380Y-88590476D02*
X137612380Y-89161904D01*
X137612380Y-88876190D02*
X136612380Y-88876190D01*
X136755238Y-88971428D01*
X136850476Y-89066666D01*
X136898095Y-89161904D01*
X136707619Y-88209523D02*
X136660000Y-88161904D01*
X136612380Y-88066666D01*
X136612380Y-87828571D01*
X136660000Y-87733333D01*
X136707619Y-87685714D01*
X136802857Y-87638095D01*
X136898095Y-87638095D01*
X137040952Y-87685714D01*
X137612380Y-88257142D01*
X137612380Y-87638095D01*
%TO.C,Q8*%
X71484761Y-87367619D02*
X71389523Y-87320000D01*
X71294285Y-87224761D01*
X71151428Y-87081904D01*
X71056190Y-87034285D01*
X70960952Y-87034285D01*
X71008571Y-87272380D02*
X70913333Y-87224761D01*
X70818095Y-87129523D01*
X70770476Y-86939047D01*
X70770476Y-86605714D01*
X70818095Y-86415238D01*
X70913333Y-86320000D01*
X71008571Y-86272380D01*
X71199047Y-86272380D01*
X71294285Y-86320000D01*
X71389523Y-86415238D01*
X71437142Y-86605714D01*
X71437142Y-86939047D01*
X71389523Y-87129523D01*
X71294285Y-87224761D01*
X71199047Y-87272380D01*
X71008571Y-87272380D01*
X72008571Y-86700952D02*
X71913333Y-86653333D01*
X71865714Y-86605714D01*
X71818095Y-86510476D01*
X71818095Y-86462857D01*
X71865714Y-86367619D01*
X71913333Y-86320000D01*
X72008571Y-86272380D01*
X72199047Y-86272380D01*
X72294285Y-86320000D01*
X72341904Y-86367619D01*
X72389523Y-86462857D01*
X72389523Y-86510476D01*
X72341904Y-86605714D01*
X72294285Y-86653333D01*
X72199047Y-86700952D01*
X72008571Y-86700952D01*
X71913333Y-86748571D01*
X71865714Y-86796190D01*
X71818095Y-86891428D01*
X71818095Y-87081904D01*
X71865714Y-87177142D01*
X71913333Y-87224761D01*
X72008571Y-87272380D01*
X72199047Y-87272380D01*
X72294285Y-87224761D01*
X72341904Y-87177142D01*
X72389523Y-87081904D01*
X72389523Y-86891428D01*
X72341904Y-86796190D01*
X72294285Y-86748571D01*
X72199047Y-86700952D01*
%TO.C,Q7*%
X86264761Y-87267619D02*
X86169523Y-87220000D01*
X86074285Y-87124761D01*
X85931428Y-86981904D01*
X85836190Y-86934285D01*
X85740952Y-86934285D01*
X85788571Y-87172380D02*
X85693333Y-87124761D01*
X85598095Y-87029523D01*
X85550476Y-86839047D01*
X85550476Y-86505714D01*
X85598095Y-86315238D01*
X85693333Y-86220000D01*
X85788571Y-86172380D01*
X85979047Y-86172380D01*
X86074285Y-86220000D01*
X86169523Y-86315238D01*
X86217142Y-86505714D01*
X86217142Y-86839047D01*
X86169523Y-87029523D01*
X86074285Y-87124761D01*
X85979047Y-87172380D01*
X85788571Y-87172380D01*
X86550476Y-86172380D02*
X87217142Y-86172380D01*
X86788571Y-87172380D01*
%TO.C,Q6*%
X101504761Y-87267619D02*
X101409523Y-87220000D01*
X101314285Y-87124761D01*
X101171428Y-86981904D01*
X101076190Y-86934285D01*
X100980952Y-86934285D01*
X101028571Y-87172380D02*
X100933333Y-87124761D01*
X100838095Y-87029523D01*
X100790476Y-86839047D01*
X100790476Y-86505714D01*
X100838095Y-86315238D01*
X100933333Y-86220000D01*
X101028571Y-86172380D01*
X101219047Y-86172380D01*
X101314285Y-86220000D01*
X101409523Y-86315238D01*
X101457142Y-86505714D01*
X101457142Y-86839047D01*
X101409523Y-87029523D01*
X101314285Y-87124761D01*
X101219047Y-87172380D01*
X101028571Y-87172380D01*
X102314285Y-86172380D02*
X102123809Y-86172380D01*
X102028571Y-86220000D01*
X101980952Y-86267619D01*
X101885714Y-86410476D01*
X101838095Y-86600952D01*
X101838095Y-86981904D01*
X101885714Y-87077142D01*
X101933333Y-87124761D01*
X102028571Y-87172380D01*
X102219047Y-87172380D01*
X102314285Y-87124761D01*
X102361904Y-87077142D01*
X102409523Y-86981904D01*
X102409523Y-86743809D01*
X102361904Y-86648571D01*
X102314285Y-86600952D01*
X102219047Y-86553333D01*
X102028571Y-86553333D01*
X101933333Y-86600952D01*
X101885714Y-86648571D01*
X101838095Y-86743809D01*
%TO.C,Q5*%
X116744761Y-87267619D02*
X116649523Y-87220000D01*
X116554285Y-87124761D01*
X116411428Y-86981904D01*
X116316190Y-86934285D01*
X116220952Y-86934285D01*
X116268571Y-87172380D02*
X116173333Y-87124761D01*
X116078095Y-87029523D01*
X116030476Y-86839047D01*
X116030476Y-86505714D01*
X116078095Y-86315238D01*
X116173333Y-86220000D01*
X116268571Y-86172380D01*
X116459047Y-86172380D01*
X116554285Y-86220000D01*
X116649523Y-86315238D01*
X116697142Y-86505714D01*
X116697142Y-86839047D01*
X116649523Y-87029523D01*
X116554285Y-87124761D01*
X116459047Y-87172380D01*
X116268571Y-87172380D01*
X117601904Y-86172380D02*
X117125714Y-86172380D01*
X117078095Y-86648571D01*
X117125714Y-86600952D01*
X117220952Y-86553333D01*
X117459047Y-86553333D01*
X117554285Y-86600952D01*
X117601904Y-86648571D01*
X117649523Y-86743809D01*
X117649523Y-86981904D01*
X117601904Y-87077142D01*
X117554285Y-87124761D01*
X117459047Y-87172380D01*
X117220952Y-87172380D01*
X117125714Y-87124761D01*
X117078095Y-87077142D01*
%TO.C,Q4*%
X131984761Y-87267619D02*
X131889523Y-87220000D01*
X131794285Y-87124761D01*
X131651428Y-86981904D01*
X131556190Y-86934285D01*
X131460952Y-86934285D01*
X131508571Y-87172380D02*
X131413333Y-87124761D01*
X131318095Y-87029523D01*
X131270476Y-86839047D01*
X131270476Y-86505714D01*
X131318095Y-86315238D01*
X131413333Y-86220000D01*
X131508571Y-86172380D01*
X131699047Y-86172380D01*
X131794285Y-86220000D01*
X131889523Y-86315238D01*
X131937142Y-86505714D01*
X131937142Y-86839047D01*
X131889523Y-87029523D01*
X131794285Y-87124761D01*
X131699047Y-87172380D01*
X131508571Y-87172380D01*
X132794285Y-86505714D02*
X132794285Y-87172380D01*
X132556190Y-86124761D02*
X132318095Y-86839047D01*
X132937142Y-86839047D01*
%TO.C,Q3*%
X164464761Y-87367619D02*
X164369523Y-87320000D01*
X164274285Y-87224761D01*
X164131428Y-87081904D01*
X164036190Y-87034285D01*
X163940952Y-87034285D01*
X163988571Y-87272380D02*
X163893333Y-87224761D01*
X163798095Y-87129523D01*
X163750476Y-86939047D01*
X163750476Y-86605714D01*
X163798095Y-86415238D01*
X163893333Y-86320000D01*
X163988571Y-86272380D01*
X164179047Y-86272380D01*
X164274285Y-86320000D01*
X164369523Y-86415238D01*
X164417142Y-86605714D01*
X164417142Y-86939047D01*
X164369523Y-87129523D01*
X164274285Y-87224761D01*
X164179047Y-87272380D01*
X163988571Y-87272380D01*
X164750476Y-86272380D02*
X165369523Y-86272380D01*
X165036190Y-86653333D01*
X165179047Y-86653333D01*
X165274285Y-86700952D01*
X165321904Y-86748571D01*
X165369523Y-86843809D01*
X165369523Y-87081904D01*
X165321904Y-87177142D01*
X165274285Y-87224761D01*
X165179047Y-87272380D01*
X164893333Y-87272380D01*
X164798095Y-87224761D01*
X164750476Y-87177142D01*
%TO.C,Q1*%
X177704761Y-107227619D02*
X177609523Y-107180000D01*
X177514285Y-107084761D01*
X177371428Y-106941904D01*
X177276190Y-106894285D01*
X177180952Y-106894285D01*
X177228571Y-107132380D02*
X177133333Y-107084761D01*
X177038095Y-106989523D01*
X176990476Y-106799047D01*
X176990476Y-106465714D01*
X177038095Y-106275238D01*
X177133333Y-106180000D01*
X177228571Y-106132380D01*
X177419047Y-106132380D01*
X177514285Y-106180000D01*
X177609523Y-106275238D01*
X177657142Y-106465714D01*
X177657142Y-106799047D01*
X177609523Y-106989523D01*
X177514285Y-107084761D01*
X177419047Y-107132380D01*
X177228571Y-107132380D01*
X178609523Y-107132380D02*
X178038095Y-107132380D01*
X178323809Y-107132380D02*
X178323809Y-106132380D01*
X178228571Y-106275238D01*
X178133333Y-106370476D01*
X178038095Y-106418095D01*
%TO.C,Q2*%
X157638761Y-92499619D02*
X157543523Y-92452000D01*
X157448285Y-92356761D01*
X157305428Y-92213904D01*
X157210190Y-92166285D01*
X157114952Y-92166285D01*
X157162571Y-92404380D02*
X157067333Y-92356761D01*
X156972095Y-92261523D01*
X156924476Y-92071047D01*
X156924476Y-91737714D01*
X156972095Y-91547238D01*
X157067333Y-91452000D01*
X157162571Y-91404380D01*
X157353047Y-91404380D01*
X157448285Y-91452000D01*
X157543523Y-91547238D01*
X157591142Y-91737714D01*
X157591142Y-92071047D01*
X157543523Y-92261523D01*
X157448285Y-92356761D01*
X157353047Y-92404380D01*
X157162571Y-92404380D01*
X157972095Y-91499619D02*
X158019714Y-91452000D01*
X158114952Y-91404380D01*
X158353047Y-91404380D01*
X158448285Y-91452000D01*
X158495904Y-91499619D01*
X158543523Y-91594857D01*
X158543523Y-91690095D01*
X158495904Y-91832952D01*
X157924476Y-92404380D01*
X158543523Y-92404380D01*
%TO.C,R1*%
X201112380Y-91606666D02*
X200636190Y-91940000D01*
X201112380Y-92178095D02*
X200112380Y-92178095D01*
X200112380Y-91797142D01*
X200160000Y-91701904D01*
X200207619Y-91654285D01*
X200302857Y-91606666D01*
X200445714Y-91606666D01*
X200540952Y-91654285D01*
X200588571Y-91701904D01*
X200636190Y-91797142D01*
X200636190Y-92178095D01*
X201112380Y-90654285D02*
X201112380Y-91225714D01*
X201112380Y-90940000D02*
X200112380Y-90940000D01*
X200255238Y-91035238D01*
X200350476Y-91130476D01*
X200398095Y-91225714D01*
%TO.C,R3*%
X190333333Y-107132380D02*
X190000000Y-106656190D01*
X189761904Y-107132380D02*
X189761904Y-106132380D01*
X190142857Y-106132380D01*
X190238095Y-106180000D01*
X190285714Y-106227619D01*
X190333333Y-106322857D01*
X190333333Y-106465714D01*
X190285714Y-106560952D01*
X190238095Y-106608571D01*
X190142857Y-106656190D01*
X189761904Y-106656190D01*
X190666666Y-106132380D02*
X191285714Y-106132380D01*
X190952380Y-106513333D01*
X191095238Y-106513333D01*
X191190476Y-106560952D01*
X191238095Y-106608571D01*
X191285714Y-106703809D01*
X191285714Y-106941904D01*
X191238095Y-107037142D01*
X191190476Y-107084761D01*
X191095238Y-107132380D01*
X190809523Y-107132380D01*
X190714285Y-107084761D01*
X190666666Y-107037142D01*
%TO.C,R4*%
X175093333Y-100782380D02*
X174760000Y-100306190D01*
X174521904Y-100782380D02*
X174521904Y-99782380D01*
X174902857Y-99782380D01*
X174998095Y-99830000D01*
X175045714Y-99877619D01*
X175093333Y-99972857D01*
X175093333Y-100115714D01*
X175045714Y-100210952D01*
X174998095Y-100258571D01*
X174902857Y-100306190D01*
X174521904Y-100306190D01*
X175950476Y-100115714D02*
X175950476Y-100782380D01*
X175712380Y-99734761D02*
X175474285Y-100449047D01*
X176093333Y-100449047D01*
%TO.C,R5*%
X175093333Y-96972380D02*
X174760000Y-96496190D01*
X174521904Y-96972380D02*
X174521904Y-95972380D01*
X174902857Y-95972380D01*
X174998095Y-96020000D01*
X175045714Y-96067619D01*
X175093333Y-96162857D01*
X175093333Y-96305714D01*
X175045714Y-96400952D01*
X174998095Y-96448571D01*
X174902857Y-96496190D01*
X174521904Y-96496190D01*
X175998095Y-95972380D02*
X175521904Y-95972380D01*
X175474285Y-96448571D01*
X175521904Y-96400952D01*
X175617142Y-96353333D01*
X175855238Y-96353333D01*
X175950476Y-96400952D01*
X175998095Y-96448571D01*
X176045714Y-96543809D01*
X176045714Y-96781904D01*
X175998095Y-96877142D01*
X175950476Y-96924761D01*
X175855238Y-96972380D01*
X175617142Y-96972380D01*
X175521904Y-96924761D01*
X175474285Y-96877142D01*
%TO.C,R6*%
X161742380Y-99226666D02*
X161266190Y-99560000D01*
X161742380Y-99798095D02*
X160742380Y-99798095D01*
X160742380Y-99417142D01*
X160790000Y-99321904D01*
X160837619Y-99274285D01*
X160932857Y-99226666D01*
X161075714Y-99226666D01*
X161170952Y-99274285D01*
X161218571Y-99321904D01*
X161266190Y-99417142D01*
X161266190Y-99798095D01*
X160742380Y-98369523D02*
X160742380Y-98560000D01*
X160790000Y-98655238D01*
X160837619Y-98702857D01*
X160980476Y-98798095D01*
X161170952Y-98845714D01*
X161551904Y-98845714D01*
X161647142Y-98798095D01*
X161694761Y-98750476D01*
X161742380Y-98655238D01*
X161742380Y-98464761D01*
X161694761Y-98369523D01*
X161647142Y-98321904D01*
X161551904Y-98274285D01*
X161313809Y-98274285D01*
X161218571Y-98321904D01*
X161170952Y-98369523D01*
X161123333Y-98464761D01*
X161123333Y-98655238D01*
X161170952Y-98750476D01*
X161218571Y-98798095D01*
X161313809Y-98845714D01*
%TO.C,R7*%
X157932380Y-99226666D02*
X157456190Y-99560000D01*
X157932380Y-99798095D02*
X156932380Y-99798095D01*
X156932380Y-99417142D01*
X156980000Y-99321904D01*
X157027619Y-99274285D01*
X157122857Y-99226666D01*
X157265714Y-99226666D01*
X157360952Y-99274285D01*
X157408571Y-99321904D01*
X157456190Y-99417142D01*
X157456190Y-99798095D01*
X156932380Y-98893333D02*
X156932380Y-98226666D01*
X157932380Y-98655238D01*
%TO.C,R8*%
X154122380Y-99226666D02*
X153646190Y-99560000D01*
X154122380Y-99798095D02*
X153122380Y-99798095D01*
X153122380Y-99417142D01*
X153170000Y-99321904D01*
X153217619Y-99274285D01*
X153312857Y-99226666D01*
X153455714Y-99226666D01*
X153550952Y-99274285D01*
X153598571Y-99321904D01*
X153646190Y-99417142D01*
X153646190Y-99798095D01*
X153550952Y-98655238D02*
X153503333Y-98750476D01*
X153455714Y-98798095D01*
X153360476Y-98845714D01*
X153312857Y-98845714D01*
X153217619Y-98798095D01*
X153170000Y-98750476D01*
X153122380Y-98655238D01*
X153122380Y-98464761D01*
X153170000Y-98369523D01*
X153217619Y-98321904D01*
X153312857Y-98274285D01*
X153360476Y-98274285D01*
X153455714Y-98321904D01*
X153503333Y-98369523D01*
X153550952Y-98464761D01*
X153550952Y-98655238D01*
X153598571Y-98750476D01*
X153646190Y-98798095D01*
X153741428Y-98845714D01*
X153931904Y-98845714D01*
X154027142Y-98798095D01*
X154074761Y-98750476D01*
X154122380Y-98655238D01*
X154122380Y-98464761D01*
X154074761Y-98369523D01*
X154027142Y-98321904D01*
X153931904Y-98274285D01*
X153741428Y-98274285D01*
X153646190Y-98321904D01*
X153598571Y-98369523D01*
X153550952Y-98464761D01*
%TO.C,R9*%
X142692380Y-97956666D02*
X142216190Y-98290000D01*
X142692380Y-98528095D02*
X141692380Y-98528095D01*
X141692380Y-98147142D01*
X141740000Y-98051904D01*
X141787619Y-98004285D01*
X141882857Y-97956666D01*
X142025714Y-97956666D01*
X142120952Y-98004285D01*
X142168571Y-98051904D01*
X142216190Y-98147142D01*
X142216190Y-98528095D01*
X142692380Y-97480476D02*
X142692380Y-97290000D01*
X142644761Y-97194761D01*
X142597142Y-97147142D01*
X142454285Y-97051904D01*
X142263809Y-97004285D01*
X141882857Y-97004285D01*
X141787619Y-97051904D01*
X141740000Y-97099523D01*
X141692380Y-97194761D01*
X141692380Y-97385238D01*
X141740000Y-97480476D01*
X141787619Y-97528095D01*
X141882857Y-97575714D01*
X142120952Y-97575714D01*
X142216190Y-97528095D01*
X142263809Y-97480476D01*
X142311428Y-97385238D01*
X142311428Y-97194761D01*
X142263809Y-97099523D01*
X142216190Y-97051904D01*
X142120952Y-97004285D01*
%TO.C,R10*%
X142692380Y-87002857D02*
X142216190Y-87336190D01*
X142692380Y-87574285D02*
X141692380Y-87574285D01*
X141692380Y-87193333D01*
X141740000Y-87098095D01*
X141787619Y-87050476D01*
X141882857Y-87002857D01*
X142025714Y-87002857D01*
X142120952Y-87050476D01*
X142168571Y-87098095D01*
X142216190Y-87193333D01*
X142216190Y-87574285D01*
X142692380Y-86050476D02*
X142692380Y-86621904D01*
X142692380Y-86336190D02*
X141692380Y-86336190D01*
X141835238Y-86431428D01*
X141930476Y-86526666D01*
X141978095Y-86621904D01*
X141692380Y-85431428D02*
X141692380Y-85336190D01*
X141740000Y-85240952D01*
X141787619Y-85193333D01*
X141882857Y-85145714D01*
X142073333Y-85098095D01*
X142311428Y-85098095D01*
X142501904Y-85145714D01*
X142597142Y-85193333D01*
X142644761Y-85240952D01*
X142692380Y-85336190D01*
X142692380Y-85431428D01*
X142644761Y-85526666D01*
X142597142Y-85574285D01*
X142501904Y-85621904D01*
X142311428Y-85669523D01*
X142073333Y-85669523D01*
X141882857Y-85621904D01*
X141787619Y-85574285D01*
X141740000Y-85526666D01*
X141692380Y-85431428D01*
%TO.C,R11*%
X142692380Y-90812857D02*
X142216190Y-91146190D01*
X142692380Y-91384285D02*
X141692380Y-91384285D01*
X141692380Y-91003333D01*
X141740000Y-90908095D01*
X141787619Y-90860476D01*
X141882857Y-90812857D01*
X142025714Y-90812857D01*
X142120952Y-90860476D01*
X142168571Y-90908095D01*
X142216190Y-91003333D01*
X142216190Y-91384285D01*
X142692380Y-89860476D02*
X142692380Y-90431904D01*
X142692380Y-90146190D02*
X141692380Y-90146190D01*
X141835238Y-90241428D01*
X141930476Y-90336666D01*
X141978095Y-90431904D01*
X142692380Y-88908095D02*
X142692380Y-89479523D01*
X142692380Y-89193809D02*
X141692380Y-89193809D01*
X141835238Y-89289047D01*
X141930476Y-89384285D01*
X141978095Y-89479523D01*
%TO.C,R13*%
X142692380Y-94622857D02*
X142216190Y-94956190D01*
X142692380Y-95194285D02*
X141692380Y-95194285D01*
X141692380Y-94813333D01*
X141740000Y-94718095D01*
X141787619Y-94670476D01*
X141882857Y-94622857D01*
X142025714Y-94622857D01*
X142120952Y-94670476D01*
X142168571Y-94718095D01*
X142216190Y-94813333D01*
X142216190Y-95194285D01*
X142692380Y-93670476D02*
X142692380Y-94241904D01*
X142692380Y-93956190D02*
X141692380Y-93956190D01*
X141835238Y-94051428D01*
X141930476Y-94146666D01*
X141978095Y-94241904D01*
X141692380Y-93337142D02*
X141692380Y-92718095D01*
X142073333Y-93051428D01*
X142073333Y-92908571D01*
X142120952Y-92813333D01*
X142168571Y-92765714D01*
X142263809Y-92718095D01*
X142501904Y-92718095D01*
X142597142Y-92765714D01*
X142644761Y-92813333D01*
X142692380Y-92908571D01*
X142692380Y-93194285D01*
X142644761Y-93289523D01*
X142597142Y-93337142D01*
%TO.C,U1*%
X184658095Y-87082380D02*
X184658095Y-87891904D01*
X184705714Y-87987142D01*
X184753333Y-88034761D01*
X184848571Y-88082380D01*
X185039047Y-88082380D01*
X185134285Y-88034761D01*
X185181904Y-87987142D01*
X185229523Y-87891904D01*
X185229523Y-87082380D01*
X186229523Y-88082380D02*
X185658095Y-88082380D01*
X185943809Y-88082380D02*
X185943809Y-87082380D01*
X185848571Y-87225238D01*
X185753333Y-87320476D01*
X185658095Y-87368095D01*
%TO.C,R2*%
X190333333Y-103322380D02*
X190000000Y-102846190D01*
X189761904Y-103322380D02*
X189761904Y-102322380D01*
X190142857Y-102322380D01*
X190238095Y-102370000D01*
X190285714Y-102417619D01*
X190333333Y-102512857D01*
X190333333Y-102655714D01*
X190285714Y-102750952D01*
X190238095Y-102798571D01*
X190142857Y-102846190D01*
X189761904Y-102846190D01*
X190714285Y-102417619D02*
X190761904Y-102370000D01*
X190857142Y-102322380D01*
X191095238Y-102322380D01*
X191190476Y-102370000D01*
X191238095Y-102417619D01*
X191285714Y-102512857D01*
X191285714Y-102608095D01*
X191238095Y-102750952D01*
X190666666Y-103322380D01*
X191285714Y-103322380D01*
%TO.C,J1*%
X55546666Y-102112380D02*
X55546666Y-102826666D01*
X55499047Y-102969523D01*
X55403809Y-103064761D01*
X55260952Y-103112380D01*
X55165714Y-103112380D01*
X56546666Y-103112380D02*
X55975238Y-103112380D01*
X56260952Y-103112380D02*
X56260952Y-102112380D01*
X56165714Y-102255238D01*
X56070476Y-102350476D01*
X55975238Y-102398095D01*
%TO.C,J4*%
X66976666Y-97032380D02*
X66976666Y-97746666D01*
X66929047Y-97889523D01*
X66833809Y-97984761D01*
X66690952Y-98032380D01*
X66595714Y-98032380D01*
X67881428Y-97365714D02*
X67881428Y-98032380D01*
X67643333Y-96984761D02*
X67405238Y-97699047D01*
X68024285Y-97699047D01*
%TO.C,JP1A1*%
X113831904Y-104652380D02*
X113831904Y-105366666D01*
X113784285Y-105509523D01*
X113689047Y-105604761D01*
X113546190Y-105652380D01*
X113450952Y-105652380D01*
X114308095Y-105652380D02*
X114308095Y-104652380D01*
X114689047Y-104652380D01*
X114784285Y-104700000D01*
X114831904Y-104747619D01*
X114879523Y-104842857D01*
X114879523Y-104985714D01*
X114831904Y-105080952D01*
X114784285Y-105128571D01*
X114689047Y-105176190D01*
X114308095Y-105176190D01*
X115831904Y-105652380D02*
X115260476Y-105652380D01*
X115546190Y-105652380D02*
X115546190Y-104652380D01*
X115450952Y-104795238D01*
X115355714Y-104890476D01*
X115260476Y-104938095D01*
X116212857Y-105366666D02*
X116689047Y-105366666D01*
X116117619Y-105652380D02*
X116450952Y-104652380D01*
X116784285Y-105652380D01*
X117641428Y-105652380D02*
X117070000Y-105652380D01*
X117355714Y-105652380D02*
X117355714Y-104652380D01*
X117260476Y-104795238D01*
X117165238Y-104890476D01*
X117070000Y-104938095D01*
%TO.C,JP1B1*%
X121380476Y-104652380D02*
X121380476Y-105366666D01*
X121332857Y-105509523D01*
X121237619Y-105604761D01*
X121094761Y-105652380D01*
X120999523Y-105652380D01*
X121856666Y-105652380D02*
X121856666Y-104652380D01*
X122237619Y-104652380D01*
X122332857Y-104700000D01*
X122380476Y-104747619D01*
X122428095Y-104842857D01*
X122428095Y-104985714D01*
X122380476Y-105080952D01*
X122332857Y-105128571D01*
X122237619Y-105176190D01*
X121856666Y-105176190D01*
X123380476Y-105652380D02*
X122809047Y-105652380D01*
X123094761Y-105652380D02*
X123094761Y-104652380D01*
X122999523Y-104795238D01*
X122904285Y-104890476D01*
X122809047Y-104938095D01*
X124142380Y-105128571D02*
X124285238Y-105176190D01*
X124332857Y-105223809D01*
X124380476Y-105319047D01*
X124380476Y-105461904D01*
X124332857Y-105557142D01*
X124285238Y-105604761D01*
X124190000Y-105652380D01*
X123809047Y-105652380D01*
X123809047Y-104652380D01*
X124142380Y-104652380D01*
X124237619Y-104700000D01*
X124285238Y-104747619D01*
X124332857Y-104842857D01*
X124332857Y-104938095D01*
X124285238Y-105033333D01*
X124237619Y-105080952D01*
X124142380Y-105128571D01*
X123809047Y-105128571D01*
X125332857Y-105652380D02*
X124761428Y-105652380D01*
X125047142Y-105652380D02*
X125047142Y-104652380D01*
X124951904Y-104795238D01*
X124856666Y-104890476D01*
X124761428Y-104938095D01*
%TO.C,JP2*%
X169842380Y-87193333D02*
X170556666Y-87193333D01*
X170699523Y-87240952D01*
X170794761Y-87336190D01*
X170842380Y-87479047D01*
X170842380Y-87574285D01*
X170842380Y-86717142D02*
X169842380Y-86717142D01*
X169842380Y-86336190D01*
X169890000Y-86240952D01*
X169937619Y-86193333D01*
X170032857Y-86145714D01*
X170175714Y-86145714D01*
X170270952Y-86193333D01*
X170318571Y-86240952D01*
X170366190Y-86336190D01*
X170366190Y-86717142D01*
X169937619Y-85764761D02*
X169890000Y-85717142D01*
X169842380Y-85621904D01*
X169842380Y-85383809D01*
X169890000Y-85288571D01*
X169937619Y-85240952D01*
X170032857Y-85193333D01*
X170128095Y-85193333D01*
X170270952Y-85240952D01*
X170842380Y-85812380D01*
X170842380Y-85193333D01*
%TO.C,J3*%
X207946666Y-83482380D02*
X207946666Y-84196666D01*
X207899047Y-84339523D01*
X207803809Y-84434761D01*
X207660952Y-84482380D01*
X207565714Y-84482380D01*
X208327619Y-83482380D02*
X208946666Y-83482380D01*
X208613333Y-83863333D01*
X208756190Y-83863333D01*
X208851428Y-83910952D01*
X208899047Y-83958571D01*
X208946666Y-84053809D01*
X208946666Y-84291904D01*
X208899047Y-84387142D01*
X208851428Y-84434761D01*
X208756190Y-84482380D01*
X208470476Y-84482380D01*
X208375238Y-84434761D01*
X208327619Y-84387142D01*
%TO.C,J2*%
X207946666Y-103802380D02*
X207946666Y-104516666D01*
X207899047Y-104659523D01*
X207803809Y-104754761D01*
X207660952Y-104802380D01*
X207565714Y-104802380D01*
X208375238Y-103897619D02*
X208422857Y-103850000D01*
X208518095Y-103802380D01*
X208756190Y-103802380D01*
X208851428Y-103850000D01*
X208899047Y-103897619D01*
X208946666Y-103992857D01*
X208946666Y-104088095D01*
X208899047Y-104230952D01*
X208327619Y-104802380D01*
X208946666Y-104802380D01*
%TO.C,C4*%
X142033333Y-103537142D02*
X141985714Y-103584761D01*
X141842857Y-103632380D01*
X141747619Y-103632380D01*
X141604761Y-103584761D01*
X141509523Y-103489523D01*
X141461904Y-103394285D01*
X141414285Y-103203809D01*
X141414285Y-103060952D01*
X141461904Y-102870476D01*
X141509523Y-102775238D01*
X141604761Y-102680000D01*
X141747619Y-102632380D01*
X141842857Y-102632380D01*
X141985714Y-102680000D01*
X142033333Y-102727619D01*
X142890476Y-102965714D02*
X142890476Y-103632380D01*
X142652380Y-102584761D02*
X142414285Y-103299047D01*
X143033333Y-103299047D01*
%TO.C,C3*%
X182673333Y-93377142D02*
X182625714Y-93424761D01*
X182482857Y-93472380D01*
X182387619Y-93472380D01*
X182244761Y-93424761D01*
X182149523Y-93329523D01*
X182101904Y-93234285D01*
X182054285Y-93043809D01*
X182054285Y-92900952D01*
X182101904Y-92710476D01*
X182149523Y-92615238D01*
X182244761Y-92520000D01*
X182387619Y-92472380D01*
X182482857Y-92472380D01*
X182625714Y-92520000D01*
X182673333Y-92567619D01*
X183006666Y-92472380D02*
X183625714Y-92472380D01*
X183292380Y-92853333D01*
X183435238Y-92853333D01*
X183530476Y-92900952D01*
X183578095Y-92948571D01*
X183625714Y-93043809D01*
X183625714Y-93281904D01*
X183578095Y-93377142D01*
X183530476Y-93424761D01*
X183435238Y-93472380D01*
X183149523Y-93472380D01*
X183054285Y-93424761D01*
X183006666Y-93377142D01*
%TO.C,C2*%
X191167142Y-99266666D02*
X191214761Y-99314285D01*
X191262380Y-99457142D01*
X191262380Y-99552380D01*
X191214761Y-99695238D01*
X191119523Y-99790476D01*
X191024285Y-99838095D01*
X190833809Y-99885714D01*
X190690952Y-99885714D01*
X190500476Y-99838095D01*
X190405238Y-99790476D01*
X190310000Y-99695238D01*
X190262380Y-99552380D01*
X190262380Y-99457142D01*
X190310000Y-99314285D01*
X190357619Y-99266666D01*
X190357619Y-98885714D02*
X190310000Y-98838095D01*
X190262380Y-98742857D01*
X190262380Y-98504761D01*
X190310000Y-98409523D01*
X190357619Y-98361904D01*
X190452857Y-98314285D01*
X190548095Y-98314285D01*
X190690952Y-98361904D01*
X191262380Y-98933333D01*
X191262380Y-98314285D01*
%TO.C,C1*%
X198167142Y-89026666D02*
X198214761Y-89074285D01*
X198262380Y-89217142D01*
X198262380Y-89312380D01*
X198214761Y-89455238D01*
X198119523Y-89550476D01*
X198024285Y-89598095D01*
X197833809Y-89645714D01*
X197690952Y-89645714D01*
X197500476Y-89598095D01*
X197405238Y-89550476D01*
X197310000Y-89455238D01*
X197262380Y-89312380D01*
X197262380Y-89217142D01*
X197310000Y-89074285D01*
X197357619Y-89026666D01*
X198262380Y-88074285D02*
X198262380Y-88645714D01*
X198262380Y-88360000D02*
X197262380Y-88360000D01*
X197405238Y-88455238D01*
X197500476Y-88550476D01*
X197548095Y-88645714D01*
%TO.C,C5*%
X167957142Y-106806666D02*
X168004761Y-106854285D01*
X168052380Y-106997142D01*
X168052380Y-107092380D01*
X168004761Y-107235238D01*
X167909523Y-107330476D01*
X167814285Y-107378095D01*
X167623809Y-107425714D01*
X167480952Y-107425714D01*
X167290476Y-107378095D01*
X167195238Y-107330476D01*
X167100000Y-107235238D01*
X167052380Y-107092380D01*
X167052380Y-106997142D01*
X167100000Y-106854285D01*
X167147619Y-106806666D01*
X167052380Y-105901904D02*
X167052380Y-106378095D01*
X167528571Y-106425714D01*
X167480952Y-106378095D01*
X167433333Y-106282857D01*
X167433333Y-106044761D01*
X167480952Y-105949523D01*
X167528571Y-105901904D01*
X167623809Y-105854285D01*
X167861904Y-105854285D01*
X167957142Y-105901904D01*
X168004761Y-105949523D01*
X168052380Y-106044761D01*
X168052380Y-106282857D01*
X168004761Y-106378095D01*
X167957142Y-106425714D01*
%TO.C,D1*%
X99092380Y-101068095D02*
X98092380Y-101068095D01*
X98092380Y-100830000D01*
X98140000Y-100687142D01*
X98235238Y-100591904D01*
X98330476Y-100544285D01*
X98520952Y-100496666D01*
X98663809Y-100496666D01*
X98854285Y-100544285D01*
X98949523Y-100591904D01*
X99044761Y-100687142D01*
X99092380Y-100830000D01*
X99092380Y-101068095D01*
X99092380Y-99544285D02*
X99092380Y-100115714D01*
X99092380Y-99830000D02*
X98092380Y-99830000D01*
X98235238Y-99925238D01*
X98330476Y-100020476D01*
X98378095Y-100115714D01*
%TO.C,D2*%
X91472380Y-101068095D02*
X90472380Y-101068095D01*
X90472380Y-100830000D01*
X90520000Y-100687142D01*
X90615238Y-100591904D01*
X90710476Y-100544285D01*
X90900952Y-100496666D01*
X91043809Y-100496666D01*
X91234285Y-100544285D01*
X91329523Y-100591904D01*
X91424761Y-100687142D01*
X91472380Y-100830000D01*
X91472380Y-101068095D01*
X90567619Y-100115714D02*
X90520000Y-100068095D01*
X90472380Y-99972857D01*
X90472380Y-99734761D01*
X90520000Y-99639523D01*
X90567619Y-99591904D01*
X90662857Y-99544285D01*
X90758095Y-99544285D01*
X90900952Y-99591904D01*
X91472380Y-100163333D01*
X91472380Y-99544285D01*
%TO.C,D3*%
X83852380Y-101068095D02*
X82852380Y-101068095D01*
X82852380Y-100830000D01*
X82900000Y-100687142D01*
X82995238Y-100591904D01*
X83090476Y-100544285D01*
X83280952Y-100496666D01*
X83423809Y-100496666D01*
X83614285Y-100544285D01*
X83709523Y-100591904D01*
X83804761Y-100687142D01*
X83852380Y-100830000D01*
X83852380Y-101068095D01*
X82852380Y-100163333D02*
X82852380Y-99544285D01*
X83233333Y-99877619D01*
X83233333Y-99734761D01*
X83280952Y-99639523D01*
X83328571Y-99591904D01*
X83423809Y-99544285D01*
X83661904Y-99544285D01*
X83757142Y-99591904D01*
X83804761Y-99639523D01*
X83852380Y-99734761D01*
X83852380Y-100020476D01*
X83804761Y-100115714D01*
X83757142Y-100163333D01*
%TD*%
M02*
